G04 Layer_Color=32768*
%FSTAX24Y24*%
%MOIN*%
G70*
G01*
G75*
%ADD23C,0.0100*%
%ADD48C,0.0050*%
%ADD86C,0.0039*%
%ADD87C,0.0197*%
%ADD88C,0.0030*%
%ADD89C,0.0020*%
D23*
X057616Y017026D02*
Y024093D01*
X047824D02*
X057616D01*
X047824Y017026D02*
Y024093D01*
Y017026D02*
X057616D01*
D48*
X06168Y01271D02*
Y01521D01*
Y01271D02*
X06338D01*
Y01521D01*
X06168D02*
X06338D01*
X062412Y01396D02*
X062648D01*
X06253Y013842D02*
Y014078D01*
D86*
X055363Y015533D02*
X058197D01*
X055363Y012107D02*
X058197D01*
X055363D02*
Y015533D01*
X058197Y012107D02*
Y015533D01*
X05678Y013623D02*
Y014017D01*
X056583Y01382D02*
X056977D01*
X05953Y018543D02*
Y018937D01*
X059333Y01874D02*
X059727D01*
X052537Y02046D02*
Y02066D01*
X052437Y02056D02*
X052637D01*
D87*
X06278Y01422D02*
D03*
D88*
X06128Y01152D02*
Y01612D01*
X06428D01*
Y01152D02*
Y01612D01*
X06128Y01152D02*
X06428D01*
D89*
X058408Y02029D02*
X060652D01*
X058408Y01719D02*
X060652D01*
X058408D02*
Y02029D01*
X060652Y01719D02*
Y02029D01*
X054346Y009625D02*
Y015727D01*
X058676D01*
Y009625D02*
Y015727D01*
X054346Y009625D02*
X058676D01*
M02*
