G04 Layer_Color=255*
%FSTAX24Y24*%
%MOIN*%
G70*
G01*
G75*
%ADD10R,0.0630X0.1024*%
%ADD11R,0.0906X0.0900*%
%ADD12R,0.0748X0.0748*%
%ADD13R,0.0157X0.0532*%
%ADD14R,0.0630X0.0551*%
%ADD15R,0.0394X0.0550*%
%ADD16R,0.0500X0.0550*%
%ADD17R,0.0335X0.0472*%
%ADD18R,0.0472X0.0315*%
%ADD19R,0.0550X0.0394*%
%ADD20R,0.0394X0.0886*%
%ADD21R,0.0591X0.0394*%
%ADD22R,0.0689X0.0787*%
%ADD25C,0.1575*%
G04:AMPARAMS|DCode=26|XSize=78.7mil|YSize=47.2mil|CornerRadius=14.2mil|HoleSize=0mil|Usage=FLASHONLY|Rotation=270.000|XOffset=0mil|YOffset=0mil|HoleType=Round|Shape=RoundedRectangle|*
%AMROUNDEDRECTD26*
21,1,0.0787,0.0189,0,0,270.0*
21,1,0.0504,0.0472,0,0,270.0*
1,1,0.0283,-0.0094,-0.0252*
1,1,0.0283,-0.0094,0.0252*
1,1,0.0283,0.0094,0.0252*
1,1,0.0283,0.0094,-0.0252*
%
%ADD26ROUNDEDRECTD26*%
%ADD27R,0.0591X0.0591*%
%ADD28C,0.0591*%
%ADD29O,0.0660X0.1000*%
%ADD30R,0.0354X0.0354*%
%ADD31C,0.0354*%
%ADD32O,0.0984X0.0787*%
%ADD33O,0.0787X0.0984*%
%ADD34C,0.0512*%
%ADD35R,0.0512X0.0512*%
%ADD36C,0.0250*%
D10*
X06253Y013251D02*
D03*
Y014669D02*
D03*
D11*
X06449Y01372D02*
D03*
Y01532D02*
D03*
D12*
X061172Y02306D02*
D03*
X060228D02*
D03*
D13*
X061212Y022007D02*
D03*
X060956D02*
D03*
X0607D02*
D03*
X060444D02*
D03*
X060188D02*
D03*
D14*
X06196Y022095D02*
D03*
X05944D02*
D03*
D15*
X06458Y02086D02*
D03*
X06548D02*
D03*
X06548Y01953D02*
D03*
X06458D02*
D03*
X04919Y01147D02*
D03*
X05009D02*
D03*
X04919Y01255D02*
D03*
X05009D02*
D03*
X06356Y02243D02*
D03*
X06446D02*
D03*
D16*
X06357Y02358D02*
D03*
X06447D02*
D03*
D17*
X064656Y017348D02*
D03*
X0654Y01735D02*
D03*
X06503Y018332D02*
D03*
D18*
X051162Y01155D02*
D03*
X053918D02*
D03*
D19*
X052545Y01441D02*
D03*
Y01351D02*
D03*
D20*
X056632Y023562D02*
D03*
X055844D02*
D03*
X055057D02*
D03*
X05427D02*
D03*
X053482D02*
D03*
X052695D02*
D03*
X051907D02*
D03*
X05112D02*
D03*
Y017558D02*
D03*
X051907D02*
D03*
X052695D02*
D03*
X053482D02*
D03*
X05427D02*
D03*
X055057D02*
D03*
X055844D02*
D03*
X056632D02*
D03*
D21*
X057222Y018591D02*
D03*
Y019379D02*
D03*
Y020166D02*
D03*
Y020953D02*
D03*
Y021741D02*
D03*
Y022528D02*
D03*
D22*
X054867Y014743D02*
D03*
Y012755D02*
D03*
Y011672D02*
D03*
X058155D02*
D03*
Y014172D02*
D03*
Y015196D02*
D03*
D25*
X046078Y01738D02*
D03*
X066944D02*
D03*
D26*
X061999Y02306D02*
D03*
X059401D02*
D03*
D27*
X06174Y01725D02*
D03*
D28*
X061735Y02025D02*
D03*
D29*
X051141Y0144D02*
D03*
X050141D02*
D03*
X049141D02*
D03*
D30*
X067594Y019994D02*
D03*
D31*
Y020486D02*
D03*
D32*
X066774Y015892D02*
D03*
D33*
X06575Y01479D02*
D03*
X067679D02*
D03*
D34*
X06019Y01461D02*
D03*
D35*
Y01161D02*
D03*
D36*
X05545Y0154D02*
D03*
Y01468D02*
D03*
M02*
