G04 Layer_Color=128*
%FSTAX24Y24*%
%MOIN*%
G70*
G01*
G75*
%ADD84C,0.0020*%
D84*
X045291Y01738D02*
X046865D01*
X046078Y016592D02*
Y018167D01*
X066157Y01738D02*
X067731D01*
X066944Y016592D02*
Y018167D01*
X061901Y02306D02*
X062098D01*
X061999Y022962D02*
Y023158D01*
X059302Y02306D02*
X059499D01*
X059401Y022962D02*
Y023158D01*
X061583Y01725D02*
X061897D01*
X06174Y017093D02*
Y017407D01*
X061578Y02025D02*
X061892D01*
X061735Y020093D02*
Y020407D01*
X050981Y0144D02*
X051301D01*
X051141Y01424D02*
Y01456D01*
X049981Y0144D02*
X050301D01*
X050141Y01424D02*
Y01456D01*
X048981Y0144D02*
X049301D01*
X049141Y01424D02*
Y01456D01*
X067495Y019994D02*
X067692D01*
X067594Y019896D02*
Y020092D01*
X067495Y020486D02*
X067692D01*
X067594Y020388D02*
Y020584D01*
X066577Y015892D02*
X06697D01*
X066774Y015696D02*
Y016089D01*
X065553Y01479D02*
X065947D01*
X06575Y014593D02*
Y014987D01*
X067482Y01479D02*
X067876D01*
X067679Y014593D02*
Y014987D01*
X060033Y01461D02*
X060347D01*
X06019Y014453D02*
Y014767D01*
X060033Y01161D02*
X060347D01*
X06019Y011453D02*
Y011767D01*
X055375Y0154D02*
X055525D01*
X05545Y015325D02*
Y015475D01*
X055375Y01468D02*
X055525D01*
X05545Y014605D02*
Y014755D01*
X061074Y014669D02*
X061224D01*
X061149Y014594D02*
Y014744D01*
X063605Y01711D02*
X063755D01*
X06368Y017035D02*
Y017185D01*
X056937Y017558D02*
X057087D01*
X057012Y017483D02*
Y017633D01*
X051605Y01349D02*
X051755D01*
X05168Y013415D02*
Y013565D01*
X051565Y01391D02*
X051715D01*
X05164Y013835D02*
Y013985D01*
X052575Y01664D02*
X052725D01*
X05265Y016565D02*
Y016715D01*
X051087Y012258D02*
X051237D01*
X051162Y012183D02*
Y012333D01*
X050965Y0167D02*
X051115D01*
X05104Y016625D02*
Y016775D01*
X05247Y013075D02*
X05262D01*
X052545Y013D02*
Y01315D01*
X053055Y01441D02*
X053205D01*
X05313Y014335D02*
Y014485D01*
X053015Y02013D02*
X053165D01*
X05309Y020055D02*
Y020205D01*
X056575Y02282D02*
X056725D01*
X05665Y022745D02*
Y022895D01*
X055775Y02283D02*
X055925D01*
X05585Y022755D02*
Y022905D01*
X054792Y015463D02*
X054942D01*
X054867Y015388D02*
Y015538D01*
X061305Y01648D02*
X061455D01*
X06138Y016405D02*
Y016555D01*
X059015Y01504D02*
X059165D01*
X05909Y014965D02*
Y015115D01*
X056135Y01575D02*
X056285D01*
X05621Y015675D02*
Y015825D01*
X058895Y01575D02*
X059045D01*
X05897Y015675D02*
Y015825D01*
X054945Y02283D02*
X055095D01*
X05502Y022755D02*
Y022905D01*
X053905Y02276D02*
X054055D01*
X05398Y022685D02*
Y022835D01*
X056055Y01825D02*
X056205D01*
X05613Y018175D02*
Y018325D01*
X058045Y01979D02*
X058195D01*
X05812Y019715D02*
Y019865D01*
X063675Y0214D02*
X063825D01*
X06375Y021325D02*
Y021475D01*
X063405Y0203D02*
X063555D01*
X06348Y020225D02*
Y020375D01*
X060625Y01863D02*
X060775D01*
X0607Y018555D02*
Y018705D01*
X058725Y01845D02*
X058875D01*
X0588Y018375D02*
Y018525D01*
X061525Y01951D02*
X061675D01*
X0616Y019435D02*
Y019585D01*
X062435Y0186D02*
X062585D01*
X06251Y018525D02*
Y018675D01*
X052205Y02217D02*
X052355D01*
X05228Y022095D02*
Y022245D01*
X053495Y02217D02*
X053645D01*
X05357Y022095D02*
Y022245D01*
X058305Y0202D02*
X058455D01*
X05838Y020125D02*
Y020275D01*
X060065Y01663D02*
X060215D01*
X06014Y016555D02*
Y016705D01*
X055405Y02187D02*
X055555D01*
X05548Y021795D02*
Y021945D01*
X058185Y02102D02*
X058335D01*
X05826Y020945D02*
Y021095D01*
X064465Y02172D02*
X064615D01*
X06454Y021645D02*
Y021795D01*
M02*
