G04 Layer_Color=16711935*
%FSTAX24Y24*%
%MOIN*%
G70*
G01*
G75*
%ADD23C,0.0100*%
%ADD48C,0.0050*%
%ADD49C,0.0079*%
%ADD84C,0.0020*%
%ADD86C,0.0039*%
D23*
X047824Y017377D02*
X057249D01*
X047824D02*
Y023742D01*
X057249D01*
Y017377D02*
Y023742D01*
D48*
X063317Y01396D02*
G03*
X063317Y01396I-000787J0D01*
G01*
X061684Y013114D02*
Y014806D01*
Y013114D02*
X063376D01*
Y014806D01*
X061684D02*
X063376D01*
D49*
X067397Y021077D02*
X069247D01*
Y019403D02*
Y021077D01*
X067397Y019403D02*
X069247D01*
X067397D02*
Y021077D01*
D84*
X050046Y01736D02*
Y02376D01*
X04782D02*
X050046D01*
X04782Y01736D02*
Y02376D01*
Y01736D02*
X050046D01*
X04802Y01746D02*
X047953D01*
X04792Y017493D01*
X047953Y017527D01*
X04802D01*
X04797D01*
Y01746D01*
X04802Y01756D02*
X04792D01*
X04802Y017627D01*
X04792D01*
Y01766D02*
Y017727D01*
Y017693D01*
X04802D01*
X04792Y017827D02*
Y01776D01*
X04802D01*
Y017827D01*
X04797Y01776D02*
Y017793D01*
X04802Y01786D02*
X04792D01*
X04802Y017927D01*
X04792D01*
X04802Y01796D02*
X04792D01*
X04802Y018026D01*
X04792D01*
X04802Y01806D02*
X047953D01*
X04792Y018093D01*
X047953Y018126D01*
X04802D01*
X04797D01*
Y01806D01*
X04802Y01826D02*
X047953D01*
X04792Y018293D01*
X047953Y018326D01*
X04802D01*
X04797D01*
Y01826D01*
X04802Y01836D02*
X04792D01*
Y01841D01*
X047937Y018426D01*
X04797D01*
X047987Y01841D01*
Y01836D01*
Y018393D02*
X04802Y018426D01*
X04792Y018526D02*
Y01846D01*
X04802D01*
Y018526D01*
X04797Y01846D02*
Y018493D01*
X04802Y01856D02*
X047953D01*
X04792Y018593D01*
X047953Y018626D01*
X04802D01*
X04797D01*
Y01856D01*
X048137Y017527D02*
X04812Y01751D01*
Y017477D01*
X048137Y01746D01*
X048203D01*
X04822Y017477D01*
Y01751D01*
X048203Y017527D01*
X04812Y01756D02*
X048203D01*
X04822Y017577D01*
Y01761D01*
X048203Y017627D01*
X04812D01*
Y01766D02*
Y017727D01*
Y017693D01*
X04822D01*
X04812Y01781D02*
Y017777D01*
X048137Y01776D01*
X048203D01*
X04822Y017777D01*
Y01781D01*
X048203Y017827D01*
X048137D01*
X04812Y01781D01*
Y01786D02*
X048203D01*
X04822Y017877D01*
Y01791D01*
X048203Y017927D01*
X04812D01*
Y01796D02*
Y018026D01*
Y017993D01*
X04822D01*
Y01816D02*
X04812D01*
Y01821D01*
X048137Y018226D01*
X04817D01*
X048187Y01821D01*
Y01816D01*
X04812Y01831D02*
Y018276D01*
X048137Y01826D01*
X048203D01*
X04822Y018276D01*
Y01831D01*
X048203Y018326D01*
X048137D01*
X04812Y01831D01*
Y01836D02*
X04822D01*
Y018426D01*
X04812Y01846D02*
X048137D01*
X04817Y018493D01*
X048137Y018526D01*
X04812D01*
X04817Y018493D02*
X04822D01*
X048137Y018626D02*
X04812Y01861D01*
Y018576D01*
X048137Y01856D01*
X048203D01*
X04822Y018576D01*
Y01861D01*
X048203Y018626D01*
X04817D01*
Y018593D01*
X04812Y01871D02*
Y018676D01*
X048137Y01866D01*
X048203D01*
X04822Y018676D01*
Y01871D01*
X048203Y018726D01*
X048137D01*
X04812Y01871D01*
X04822Y01876D02*
X04812D01*
X04822Y018826D01*
X04812D01*
D86*
X059077Y019173D02*
G03*
X059077Y019173I-000197J0D01*
G01*
X055461Y014548D02*
X058099D01*
X055461Y013092D02*
X058099D01*
X055461D02*
Y014548D01*
X058099Y013092D02*
Y014548D01*
X058526Y019527D02*
X060534D01*
X058526Y017953D02*
X060534D01*
X058526D02*
Y019527D01*
X060534Y017953D02*
Y019527D01*
M02*
