G04 Layer_Color=32896*
%FSTAX24Y24*%
%MOIN*%
G70*
G01*
G75*
%ADD42C,0.0080*%
%ADD44C,0.0098*%
%ADD48C,0.0050*%
%ADD49C,0.0079*%
%ADD51C,0.0040*%
%ADD83C,0.0236*%
%ADD84C,0.0020*%
D42*
X06471Y01566D02*
X064577D01*
X064643D01*
Y01606D01*
X06471Y015993D01*
X060633Y016933D02*
X0607Y017D01*
X060833D01*
X0609Y016933D01*
Y016667D01*
X060833Y0166D01*
X0607D01*
X060633Y016667D01*
X0605Y0166D02*
X060367D01*
X060433D01*
Y017D01*
X0605Y016933D01*
X058903Y013653D02*
X05897Y01372D01*
X059103D01*
X05917Y013653D01*
Y013387D01*
X059103Y01332D01*
X05897D01*
X058903Y013387D01*
X05877Y013653D02*
X058703Y01372D01*
X05857D01*
X058504Y013653D01*
Y013587D01*
X05857Y01352D01*
X058637D01*
X05857D01*
X058504Y013453D01*
Y013387D01*
X05857Y01332D01*
X058703D01*
X05877Y013387D01*
X052333Y015183D02*
X0524Y01525D01*
X052533D01*
X0526Y015183D01*
Y014917D01*
X052533Y01485D01*
X0524D01*
X052333Y014917D01*
X052Y01485D02*
Y01525D01*
X0522Y01505D01*
X051934D01*
X052333Y013803D02*
X0524Y01387D01*
X052533D01*
X0526Y013803D01*
Y013537D01*
X052533Y01347D01*
X0524D01*
X052333Y013537D01*
X051934Y01387D02*
X0522D01*
Y01367D01*
X052067Y013737D01*
X052D01*
X051934Y01367D01*
Y013537D01*
X052Y01347D01*
X052133D01*
X0522Y013537D01*
X05234Y0191D02*
Y0195D01*
X05214D01*
X052073Y019433D01*
Y0193D01*
X05214Y019233D01*
X05234D01*
X052207D02*
X052073Y0191D01*
X05194Y019433D02*
X051873Y0195D01*
X05174D01*
X051674Y019433D01*
Y019367D01*
X05174Y0193D01*
X051807D01*
X05174D01*
X051674Y019233D01*
Y019167D01*
X05174Y0191D01*
X051873D01*
X05194Y019167D01*
X05506Y022D02*
Y0224D01*
X05486D01*
X054793Y022333D01*
Y0222D01*
X05486Y022133D01*
X05506D01*
X054927D02*
X054793Y022D01*
X05446D02*
Y0224D01*
X05466Y0222D01*
X054394D01*
X05722Y022D02*
Y0224D01*
X05702D01*
X056953Y022333D01*
Y0222D01*
X05702Y022133D01*
X05722D01*
X057087D02*
X056953Y022D01*
X056554Y0224D02*
X05682D01*
Y0222D01*
X056687Y022267D01*
X05662D01*
X056554Y0222D01*
Y022067D01*
X05662Y022D01*
X056753D01*
X05682Y022067D01*
X05722Y01948D02*
Y01988D01*
X05702D01*
X056953Y019813D01*
Y01968D01*
X05702Y019613D01*
X05722D01*
X057087D02*
X056953Y01948D01*
X056554Y01988D02*
X056687Y019813D01*
X05682Y01968D01*
Y019547D01*
X056753Y01948D01*
X05662D01*
X056554Y019547D01*
Y019613D01*
X05662Y01968D01*
X05682D01*
X05506Y01948D02*
Y01988D01*
X05486D01*
X054793Y019813D01*
Y01968D01*
X05486Y019613D01*
X05506D01*
X054927D02*
X054793Y01948D01*
X05466Y01988D02*
X054394D01*
Y019813D01*
X05466Y019547D01*
Y01948D01*
X05722Y01776D02*
Y01816D01*
X05702D01*
X056953Y018093D01*
Y01796D01*
X05702Y017893D01*
X05722D01*
X057087D02*
X056953Y01776D01*
X05682Y018093D02*
X056753Y01816D01*
X05662D01*
X056554Y018093D01*
Y018027D01*
X05662Y01796D01*
X056554Y017893D01*
Y017827D01*
X05662Y01776D01*
X056753D01*
X05682Y017827D01*
Y017893D01*
X056753Y01796D01*
X05682Y018027D01*
Y018093D01*
X056753Y01796D02*
X05662D01*
X05506Y01776D02*
Y01816D01*
X05486D01*
X054793Y018093D01*
Y01796D01*
X05486Y017893D01*
X05506D01*
X054927D02*
X054793Y01776D01*
X05466D02*
X054527D01*
X054593D01*
Y01816D01*
X05466Y018093D01*
X054327D02*
X05426Y01816D01*
X054127D01*
X05406Y018093D01*
Y017827D01*
X054127Y01776D01*
X05426D01*
X054327Y017827D01*
Y018093D01*
X06058Y02098D02*
Y020647D01*
X060513Y02058D01*
X06038D01*
X060313Y020647D01*
Y02098D01*
X059914Y02058D02*
X06018D01*
X059914Y020847D01*
Y020913D01*
X05998Y02098D01*
X060113D01*
X06018Y020913D01*
X05814Y01623D02*
Y015897D01*
X058073Y01583D01*
X05794D01*
X057873Y015897D01*
Y01623D01*
X05774Y016163D02*
X057673Y01623D01*
X05754D01*
X057474Y016163D01*
Y016097D01*
X05754Y01603D01*
X057607D01*
X05754D01*
X057474Y015963D01*
Y015897D01*
X05754Y01583D01*
X057673D01*
X05774Y015897D01*
X058903Y012753D02*
X05897Y01282D01*
X059103D01*
X05917Y012753D01*
Y012487D01*
X059103Y01242D01*
X05897D01*
X058903Y012487D01*
X058504Y01242D02*
X05877D01*
X058504Y012687D01*
Y012753D01*
X05857Y01282D01*
X058703D01*
X05877Y012753D01*
D44*
X06193Y015145D02*
G03*
X06193Y015145I-000049J0D01*
G01*
X05551Y014962D02*
G03*
X05551Y014962I-000049J0D01*
G01*
X058455Y019852D02*
G03*
X058455Y019852I-000049J0D01*
G01*
D48*
X061402Y012448D02*
X061599D01*
X063961D02*
X064158D01*
X061402Y014811D02*
X064158D01*
X063489D02*
Y015283D01*
Y014811D02*
X063882D01*
Y015283D01*
X062583Y014811D02*
Y015126D01*
Y014811D02*
X062977D01*
Y015126D01*
X062583D02*
X062977D01*
X062071Y014811D02*
Y015283D01*
X061678Y014811D02*
X062071D01*
X061678D02*
Y015283D01*
X064158Y012448D02*
Y014811D01*
X061402Y012448D02*
Y014811D01*
X059425Y01563D02*
X060955D01*
X059425D02*
Y0163D01*
X060955D01*
Y01563D02*
Y0163D01*
X059425Y01321D02*
X060955D01*
X059425D02*
Y01388D01*
X060955D01*
Y01321D02*
Y01388D01*
X0529Y01472D02*
X05443D01*
X0529D02*
Y01539D01*
X05443D01*
Y01472D02*
Y01539D01*
X0529Y01334D02*
X05443D01*
X0529D02*
Y01401D01*
X05443D01*
Y01334D02*
Y01401D01*
X059425Y01231D02*
X060955D01*
X059425D02*
Y01298D01*
X060955D01*
Y01231D02*
Y01298D01*
X05512Y02103D02*
Y0217D01*
X05372D02*
X05512D01*
X05372Y02103D02*
Y0217D01*
Y02103D02*
X05512D01*
X05728Y02102D02*
Y02169D01*
X05588D02*
X05728D01*
X05588Y02102D02*
Y02169D01*
Y02102D02*
X05728D01*
Y01851D02*
Y01918D01*
X05588D02*
X05728D01*
X05588Y01851D02*
Y01918D01*
Y01851D02*
X05728D01*
X05512D02*
Y01918D01*
X05372D02*
X05512D01*
X05372Y01851D02*
Y01918D01*
Y01851D02*
X05512D01*
X05728Y01678D02*
Y01745D01*
X05588D02*
X05728D01*
X05588Y01678D02*
Y01745D01*
Y01678D02*
X05728D01*
X05512D02*
Y01745D01*
X05372D02*
X05512D01*
X05372Y01678D02*
Y01745D01*
Y01678D02*
X05512D01*
X05274Y01976D02*
Y02043D01*
X05134D02*
X05274D01*
X05134Y01976D02*
Y02043D01*
Y01976D02*
X05274D01*
D49*
X055461Y014371D02*
X058099D01*
X055461Y013269D02*
X058099D01*
X055461D02*
Y014371D01*
X058099Y013269D02*
Y014371D01*
X058526Y019399D02*
X060534D01*
X058526Y018081D02*
X060534D01*
X058526D02*
Y019399D01*
X060534Y018081D02*
Y019399D01*
D51*
X060015Y01622D02*
X060355D01*
X060015Y01572D02*
X060355D01*
X060015Y0138D02*
X060355D01*
X060015Y0133D02*
X060355D01*
X05349Y01531D02*
X05383D01*
X05349Y01481D02*
X05383D01*
X05349Y01393D02*
X05383D01*
X05349Y01343D02*
X05383D01*
X060015Y0129D02*
X060355D01*
X060015Y0124D02*
X060355D01*
X05425Y02112D02*
X05459D01*
X05425Y02162D02*
X05459D01*
X05641Y02111D02*
X05675D01*
X05641Y02161D02*
X05675D01*
X05641Y0186D02*
X05675D01*
X05641Y0191D02*
X05675D01*
X05425Y0186D02*
X05459D01*
X05425Y0191D02*
X05459D01*
X05641Y01687D02*
X05675D01*
X05641Y01737D02*
X05675D01*
X05425Y01687D02*
X05459D01*
X05425Y01737D02*
X05459D01*
X05187Y01985D02*
X05221D01*
X05187Y02035D02*
X05221D01*
D83*
X059038Y019006D02*
G03*
X059038Y019006I-000118J0D01*
G01*
D84*
X05023Y01632D02*
X05029D01*
X05021Y01634D02*
X05033D01*
X05013Y01636D02*
X05023D01*
X05025D02*
X05027D01*
X05029D02*
X05037D01*
X05011Y01638D02*
X05019D01*
X05025D02*
X05027D01*
X05033D02*
X05039D01*
X05007Y0164D02*
X05013D01*
X05025D02*
X05027D01*
X05035D02*
X05041D01*
X05009Y01642D02*
X05015D01*
X05023D02*
X05027D01*
X05037D02*
X05043D01*
X05005Y01644D02*
X05011D01*
X05025D02*
X05027D01*
X05039D02*
X05047D01*
X05001Y01646D02*
X05007D01*
X05025D02*
X05027D01*
X05043D02*
X05051D01*
X04997Y01648D02*
X05003D01*
X05025D02*
X05027D01*
X05047D02*
X05053D01*
X04993Y0165D02*
X05001D01*
X05025D02*
X05027D01*
X05051D02*
X05057D01*
X04989Y01652D02*
X04997D01*
X05025D02*
X05027D01*
X05053D02*
X05061D01*
X04987Y01654D02*
X04993D01*
X05025D02*
X05027D01*
X05057D02*
X05063D01*
X04983Y01656D02*
X04989D01*
X05025D02*
X05027D01*
X05061D02*
X05067D01*
X04979Y01658D02*
X04987D01*
X05023D02*
X05027D01*
X05065D02*
X05073D01*
X04975Y0166D02*
X04983D01*
X05025D02*
X05027D01*
X05067D02*
X05069D01*
X05071D02*
X05075D01*
X04973Y01662D02*
X04979D01*
X05025D02*
X05027D01*
X05073D02*
X05081D01*
X04969Y01664D02*
X04975D01*
X05025D02*
X05029D01*
X05077D02*
X05083D01*
X04963Y01666D02*
X04973D01*
X05025D02*
X05027D01*
X05081D02*
X05087D01*
X04961Y01668D02*
X04965D01*
X04967D02*
X04969D01*
X05025D02*
X05027D01*
X05085D02*
X05091D01*
X04957Y0167D02*
X04965D01*
X05025D02*
X05027D01*
X05087D02*
X05095D01*
X04953Y01672D02*
X04959D01*
X05025D02*
X05027D01*
X05091D02*
X05097D01*
X04951Y01674D02*
X04957D01*
X05025D02*
X05027D01*
X05095D02*
X05101D01*
X04947Y01676D02*
X04953D01*
X05025D02*
X05027D01*
X05099D02*
X05105D01*
X04943Y01678D02*
X04949D01*
X05025D02*
X05027D01*
X05101D02*
X05107D01*
X04939Y0168D02*
X04947D01*
X05023D02*
X05029D01*
X05105D02*
X05111D01*
X04937Y01682D02*
X04943D01*
X05021D02*
X05025D01*
X05027D02*
X05031D01*
X05107D02*
X05115D01*
X04933Y01684D02*
X04939D01*
X05015D02*
X05021D01*
X05031D02*
X05035D01*
X05113D02*
X05117D01*
X05119D02*
X05121D01*
X04929Y01686D02*
X04935D01*
X05011D02*
X05015D01*
X05017D02*
X05019D01*
X05033D02*
X05039D01*
X05115D02*
X05125D01*
X04925Y01688D02*
X04933D01*
X05007D02*
X05013D01*
X05037D02*
X05043D01*
X05121D02*
X05127D01*
X04923Y0169D02*
X04929D01*
X05005D02*
X05009D01*
X05043D02*
X05047D01*
X05125D02*
X05131D01*
X04923Y01692D02*
X04929D01*
X05005D02*
X05009D01*
X05041D02*
X05047D01*
X05125D02*
X05131D01*
X04919Y01694D02*
X04925D01*
X05001D02*
X05005D01*
X05045D02*
X05051D01*
X05127D02*
X05133D01*
X04913Y01696D02*
X04921D01*
X04997D02*
X05003D01*
X05049D02*
X05053D01*
X05131D02*
X05137D01*
X04911Y01698D02*
X04919D01*
X04995D02*
X04999D01*
X05053D02*
X05057D01*
X05135D02*
X05141D01*
X04907Y017D02*
X04913D01*
X04991D02*
X04995D01*
X05023D02*
X05029D01*
X05055D02*
X05061D01*
X05139D02*
X05145D01*
X04903Y01702D02*
X04909D01*
X04987D02*
X04991D01*
X05019D02*
X05031D01*
X05059D02*
X05065D01*
X05141D02*
X05147D01*
X04899Y01704D02*
X04907D01*
X04983D02*
X04989D01*
X05015D02*
X05029D01*
X05031D02*
X05035D01*
X05063D02*
X05069D01*
X05145D02*
X05151D01*
X04897Y01706D02*
X04903D01*
X04979D02*
X04985D01*
X05011D02*
X05027D01*
X05035D02*
X05039D01*
X05067D02*
X05073D01*
X05149D02*
X05155D01*
X04893Y01708D02*
X04899D01*
X04977D02*
X04981D01*
X05007D02*
X05027D01*
X05037D02*
X05043D01*
X05073D02*
X05077D01*
X05153D02*
X05159D01*
X04889Y0171D02*
X04895D01*
X04973D02*
X04977D01*
X05005D02*
X05029D01*
X05041D02*
X05047D01*
X05075D02*
X05081D01*
X05157D02*
X05161D01*
X04887Y01712D02*
X04893D01*
X04969D02*
X04975D01*
X05001D02*
X05027D01*
X05045D02*
X05049D01*
X05079D02*
X05083D01*
X05159D02*
X05165D01*
X04883Y01714D02*
X04889D01*
X04965D02*
X04971D01*
X04999D02*
X05027D01*
X05047D02*
X05051D01*
X05083D02*
X05087D01*
X05163D02*
X05171D01*
X04879Y01716D02*
X04885D01*
X04961D02*
X04965D01*
X04967D02*
X04969D01*
X04995D02*
X05029D01*
X05051D02*
X05055D01*
X05087D02*
X05091D01*
X05167D02*
X05175D01*
X04875Y01718D02*
X04883D01*
X04957D02*
X04961D01*
X04993D02*
X05027D01*
X05053D02*
X05059D01*
X05089D02*
X05095D01*
X05171D02*
X05179D01*
X04873Y0172D02*
X04879D01*
X04953D02*
X04959D01*
X04989D02*
X05029D01*
X05057D02*
X05063D01*
X05093D02*
X05099D01*
X05175D02*
X05181D01*
X04869Y01722D02*
X04875D01*
X04951D02*
X04955D01*
X04985D02*
X05027D01*
X05061D02*
X05065D01*
X05097D02*
X05101D01*
X05179D02*
X05185D01*
X04863Y01724D02*
X04871D01*
X04947D02*
X04951D01*
X04985D02*
X05029D01*
X05065D02*
X05073D01*
X05101D02*
X05105D01*
X05181D02*
X05187D01*
X04859Y01726D02*
X04869D01*
X04943D02*
X04945D01*
X04947D02*
X04949D01*
X04985D02*
X05027D01*
X05067D02*
X05069D01*
X05071D02*
X05075D01*
X05103D02*
X05109D01*
X05185D02*
X05193D01*
X04857Y01728D02*
X04863D01*
X04939D02*
X04945D01*
X04983D02*
X05027D01*
X05073D02*
X05079D01*
X05107D02*
X05113D01*
X05189D02*
X05195D01*
X04853Y0173D02*
X04859D01*
X04939D02*
X04941D01*
X04985D02*
X05027D01*
X05077D02*
X05083D01*
X05111D02*
X05115D01*
X05193D02*
X05199D01*
X04849Y01732D02*
X04855D01*
X04933D02*
X04939D01*
X04985D02*
X05029D01*
X05081D02*
X05085D01*
X05115D02*
X05121D01*
X05195D02*
X05203D01*
X04847Y01734D02*
X04853D01*
X04929D02*
X04933D01*
X04963D02*
X04971D01*
X04983D02*
X05027D01*
X05083D02*
X05089D01*
X05119D02*
X05125D01*
X05199D02*
X05205D01*
X04843Y01736D02*
X04849D01*
X04925D02*
X04931D01*
X04959D02*
X04975D01*
X04985D02*
X05029D01*
X05087D02*
X05093D01*
X05123D02*
X05129D01*
X05203D02*
X05209D01*
X04839Y01738D02*
X04845D01*
X04923D02*
X04927D01*
X04955D02*
X04971D01*
X04973D02*
X04977D01*
X04985D02*
X05027D01*
X05091D02*
X05095D01*
X05127D02*
X05133D01*
X05207D02*
X05213D01*
X04839Y0174D02*
X04845D01*
X04923D02*
X04927D01*
X04955D02*
X04969D01*
X04971D02*
X04979D01*
X04983D02*
X05027D01*
X05091D02*
X05097D01*
X05127D02*
X05131D01*
X05207D02*
X05213D01*
X04837Y01742D02*
X04843D01*
X04915D02*
X04917D01*
X04919D02*
X04923D01*
X04951D02*
X04969D01*
X04975D02*
X04981D01*
X04985D02*
X05029D01*
X05095D02*
X05099D01*
X05129D02*
X05137D01*
X05209D02*
X05215D01*
X04833Y01744D02*
X04839D01*
X04915D02*
X04921D01*
X04949D02*
X04971D01*
X04979D02*
X05027D01*
X05097D02*
X05103D01*
X05135D02*
X05139D01*
X05213D02*
X05221D01*
X04829Y01746D02*
X04835D01*
X04911D02*
X04915D01*
X04945D02*
X04969D01*
X04981D02*
X05027D01*
X05101D02*
X05107D01*
X05137D02*
X05143D01*
X05217D02*
X05225D01*
X04825Y01748D02*
X04833D01*
X04907D02*
X04913D01*
X04941D02*
X04969D01*
X04985D02*
X05029D01*
X05105D02*
X05109D01*
X05141D02*
X05147D01*
X05223D02*
X05229D01*
X04821Y0175D02*
X04829D01*
X04903D02*
X04907D01*
X04937D02*
X04971D01*
X04985D02*
X05027D01*
X05107D02*
X05113D01*
X05145D02*
X05151D01*
X05227D02*
X05231D01*
X04819Y01752D02*
X04825D01*
X04899D02*
X04905D01*
X04935D02*
X04971D01*
X04983D02*
X05029D01*
X05111D02*
X05115D01*
X05149D02*
X05153D01*
X05229D02*
X05237D01*
X04813Y01754D02*
X04821D01*
X04897D02*
X04901D01*
X04931D02*
X04969D01*
X04985D02*
X05027D01*
X05115D02*
X05121D01*
X05153D02*
X05157D01*
X05233D02*
X05239D01*
X04809Y01756D02*
X04815D01*
X04817D02*
X04819D01*
X04891D02*
X04897D01*
X04927D02*
X04969D01*
X04983D02*
X05027D01*
X05117D02*
X05119D01*
X05121D02*
X05125D01*
X05157D02*
X05161D01*
X05237D02*
X05243D01*
X04807Y01758D02*
X04813D01*
X04889D02*
X04891D01*
X04893D02*
X04895D01*
X04927D02*
X04971D01*
X04985D02*
X05029D01*
X05123D02*
X05129D01*
X05159D02*
X05165D01*
X05239D02*
X05247D01*
X04803Y0176D02*
X04809D01*
X04885D02*
X04891D01*
X04927D02*
X04969D01*
X04985D02*
X05027D01*
X05127D02*
X05133D01*
X05163D02*
X05167D01*
X05169D02*
X05171D01*
X05243D02*
X05251D01*
X04799Y01762D02*
X04807D01*
X04881D02*
X04887D01*
X04925D02*
X04969D01*
X04983D02*
X05027D01*
X05131D02*
X05135D01*
X05167D02*
X05173D01*
X05247D02*
X05253D01*
X04797Y01764D02*
X04803D01*
X04879D02*
X04883D01*
X04927D02*
X04971D01*
X04985D02*
X05029D01*
X05135D02*
X05139D01*
X05173D02*
X05177D01*
X05251D02*
X05255D01*
X04793Y01766D02*
X04799D01*
X04875D02*
X04879D01*
X04927D02*
X04969D01*
X04985D02*
X05027D01*
X05137D02*
X05143D01*
X05175D02*
X05181D01*
X05253D02*
X05261D01*
X04789Y01768D02*
X04795D01*
X04871D02*
X04877D01*
X04927D02*
X04971D01*
X04983D02*
X05029D01*
X05141D02*
X05147D01*
X05179D02*
X05185D01*
X05257D02*
X05263D01*
X04785Y0177D02*
X04793D01*
X04867D02*
X04873D01*
X04927D02*
X04969D01*
X04985D02*
X05027D01*
X05145D02*
X05149D01*
X05183D02*
X05187D01*
X05261D02*
X05267D01*
X04783Y01772D02*
X04789D01*
X04863D02*
X04869D01*
X04925D02*
X04969D01*
X04983D02*
X05027D01*
X05147D02*
X05153D01*
X05187D02*
X05191D01*
X05265D02*
X05273D01*
X04779Y01774D02*
X04785D01*
X04859D02*
X04863D01*
X04927D02*
X04971D01*
X04985D02*
X05029D01*
X05151D02*
X05157D01*
X05189D02*
X05195D01*
X05267D02*
X05275D01*
X04775Y01776D02*
X04781D01*
X04855D02*
X04861D01*
X04927D02*
X04969D01*
X04985D02*
X05027D01*
X05155D02*
X05161D01*
X05193D02*
X05199D01*
X05273D02*
X05279D01*
X04771Y01778D02*
X04779D01*
X04851D02*
X04853D01*
X04855D02*
X04857D01*
X04925D02*
X04969D01*
X04985D02*
X05027D01*
X05159D02*
X05163D01*
X05197D02*
X05203D01*
X05277D02*
X05283D01*
X04769Y0178D02*
X04775D01*
X04849D02*
X04855D01*
X04927D02*
X04971D01*
X04983D02*
X05029D01*
X05161D02*
X05167D01*
X05201D02*
X05205D01*
X05281D02*
X05285D01*
X04763Y01782D02*
X04771D01*
X04845D02*
X04849D01*
X04883D02*
X04889D01*
X04927D02*
X04969D01*
X04985D02*
X05027D01*
X05165D02*
X05171D01*
X05203D02*
X05209D01*
X05283D02*
X05291D01*
X04759Y01784D02*
X04767D01*
X04841D02*
X04847D01*
X04879D02*
X04889D01*
X04891D02*
X04893D01*
X04925D02*
X04969D01*
X04985D02*
X05027D01*
X05169D02*
X05175D01*
X05207D02*
X05213D01*
X05287D02*
X05293D01*
X04755Y01786D02*
X04763D01*
X04837D02*
X04843D01*
X04875D02*
X04897D01*
X04927D02*
X04971D01*
X04985D02*
X05027D01*
X05173D02*
X05179D01*
X05211D02*
X05215D01*
X05291D02*
X05295D01*
X04757Y01788D02*
X04763D01*
X04839D02*
X04843D01*
X04875D02*
X04887D01*
X04891D02*
X04895D01*
X04927D02*
X04969D01*
X04985D02*
X05029D01*
X05175D02*
X05179D01*
X05211D02*
X05217D01*
X05291D02*
X05297D01*
X04753Y0179D02*
X04759D01*
X04835D02*
X04839D01*
X04871D02*
X04889D01*
X04893D02*
X04901D01*
X04927D02*
X04969D01*
X04983D02*
X05027D01*
X05177D02*
X05183D01*
X05215D02*
X05221D01*
X05293D02*
X05301D01*
X04749Y01792D02*
X04755D01*
X04831D02*
X04835D01*
X04865D02*
X04867D01*
X04869D02*
X04887D01*
X04897D02*
X04905D01*
X04927D02*
X04971D01*
X04985D02*
X05029D01*
X05181D02*
X05185D01*
X05217D02*
X05219D01*
X05221D02*
X05223D01*
X05297D02*
X05303D01*
X04745Y01794D02*
X04753D01*
X04827D02*
X04833D01*
X04863D02*
X04887D01*
X04901D02*
X04907D01*
X04925D02*
X04969D01*
X04985D02*
X05027D01*
X05183D02*
X05189D01*
X05223D02*
X05229D01*
X05301D02*
X05307D01*
X04743Y01796D02*
X04749D01*
X04825D02*
X04829D01*
X04859D02*
X04889D01*
X04905D02*
X04911D01*
X04927D02*
X04971D01*
X04983D02*
X05027D01*
X05189D02*
X05193D01*
X05227D02*
X05233D01*
X05305D02*
X05311D01*
X04739Y01798D02*
X04745D01*
X04821D02*
X04825D01*
X04855D02*
X04887D01*
X04907D02*
X04915D01*
X04927D02*
X04969D01*
X04985D02*
X05029D01*
X05191D02*
X05197D01*
X05231D02*
X05237D01*
X05307D02*
X05313D01*
X04735Y018D02*
X04741D01*
X04815D02*
X04823D01*
X04851D02*
X04889D01*
X04911D02*
X04921D01*
X04927D02*
X04971D01*
X04985D02*
X05027D01*
X05195D02*
X05199D01*
X05235D02*
X05239D01*
X05311D02*
X05317D01*
X04731Y01802D02*
X04739D01*
X04811D02*
X04815D01*
X04817D02*
X04819D01*
X04847D02*
X04887D01*
X04915D02*
X04925D01*
X04927D02*
X04969D01*
X04985D02*
X05027D01*
X05199D02*
X05203D01*
X05239D02*
X05243D01*
X05315D02*
X05323D01*
X04729Y01804D02*
X04735D01*
X04809D02*
X04813D01*
X04845D02*
X04889D01*
X04921D02*
X04969D01*
X04983D02*
X05029D01*
X05201D02*
X05207D01*
X05241D02*
X05247D01*
X05319D02*
X05325D01*
X04725Y01806D02*
X04731D01*
X04805D02*
X04809D01*
X04841D02*
X04887D01*
X04925D02*
X04971D01*
X04985D02*
X05027D01*
X05205D02*
X05209D01*
X05245D02*
X05249D01*
X05323D02*
X05331D01*
X04721Y01808D02*
X04729D01*
X04799D02*
X04801D01*
X04803D02*
X04807D01*
X04843D02*
X04887D01*
X04927D02*
X04969D01*
X04983D02*
X05029D01*
X05207D02*
X05213D01*
X05249D02*
X05253D01*
X05327D02*
X05335D01*
X04717Y0181D02*
X04725D01*
X04799D02*
X04803D01*
X04841D02*
X04887D01*
X04927D02*
X04969D01*
X04985D02*
X05027D01*
X05213D02*
X05217D01*
X05253D02*
X05257D01*
X05331D02*
X05337D01*
X04713Y01812D02*
X04721D01*
X04795D02*
X04799D01*
X04843D02*
X04889D01*
X04925D02*
X04971D01*
X04985D02*
X05027D01*
X05215D02*
X05223D01*
X05257D02*
X05261D01*
X05335D02*
X05339D01*
X04709Y01814D02*
X04717D01*
X04791D02*
X04795D01*
X04843D02*
X04887D01*
X04927D02*
X04969D01*
X04983D02*
X05029D01*
X05221D02*
X05225D01*
X05259D02*
X05265D01*
X05337D02*
X05343D01*
X04705Y01816D02*
X04713D01*
X04787D02*
X04793D01*
X04843D02*
X04887D01*
X04925D02*
X04971D01*
X04985D02*
X05027D01*
X05223D02*
X05229D01*
X05263D02*
X05267D01*
X05269D02*
X05271D01*
X05341D02*
X05349D01*
X04701Y01818D02*
X04709D01*
X04785D02*
X04789D01*
X04843D02*
X04887D01*
X04927D02*
X04969D01*
X04983D02*
X05027D01*
X05229D02*
X05233D01*
X05267D02*
X05273D01*
X05345D02*
X05349D01*
X04701Y0182D02*
X04705D01*
X04781D02*
X04785D01*
X04841D02*
X04889D01*
X04925D02*
X04971D01*
X04985D02*
X05029D01*
X05231D02*
X05237D01*
X05273D02*
X05277D01*
X05347D02*
X05349D01*
X04701Y01822D02*
X04703D01*
X04777D02*
X04781D01*
X04843D02*
X04887D01*
X04927D02*
X04969D01*
X04985D02*
X05027D01*
X05235D02*
X05241D01*
X05277D02*
X05281D01*
X05347D02*
X05351D01*
X04699Y01824D02*
X04703D01*
X04773D02*
X04779D01*
X04843D02*
X04887D01*
X04927D02*
X04969D01*
X04983D02*
X05029D01*
X05239D02*
X05243D01*
X05279D02*
X05285D01*
X05347D02*
X05349D01*
X04701Y01826D02*
X04703D01*
X04769D02*
X04775D01*
X04841D02*
X04889D01*
X04927D02*
X04969D01*
X04985D02*
X05027D01*
X05241D02*
X05247D01*
X05283D02*
X05287D01*
X05347D02*
X05349D01*
X04701Y01828D02*
X04703D01*
X04767D02*
X04771D01*
X04843D02*
X04887D01*
X04925D02*
X04971D01*
X04985D02*
X05027D01*
X05245D02*
X05251D01*
X05287D02*
X05291D01*
X05347D02*
X05349D01*
X04701Y0183D02*
X04703D01*
X04761D02*
X04767D01*
X04843D02*
X04887D01*
X04927D02*
X04969D01*
X04983D02*
X05029D01*
X05249D02*
X05253D01*
X05289D02*
X05295D01*
X05347D02*
X05349D01*
X04699Y01832D02*
X04703D01*
X04757D02*
X04763D01*
X04841D02*
X04889D01*
X04927D02*
X04969D01*
X04985D02*
X05027D01*
X05251D02*
X05257D01*
X05293D02*
X05299D01*
X05347D02*
X05351D01*
X04701Y01834D02*
X04705D01*
X04755D02*
X04759D01*
X04843D02*
X04887D01*
X04927D02*
X04971D01*
X04985D02*
X05027D01*
X05255D02*
X05261D01*
X05297D02*
X05303D01*
X05345D02*
X05349D01*
X04701Y01836D02*
X04703D01*
X04751D02*
X04757D01*
X04843D02*
X04889D01*
X04925D02*
X04969D01*
X04983D02*
X05029D01*
X05259D02*
X05265D01*
X05301D02*
X05305D01*
X05347D02*
X05349D01*
X04701Y01838D02*
X04703D01*
X04751D02*
X04753D01*
X04841D02*
X04887D01*
X04927D02*
X04969D01*
X04985D02*
X05027D01*
X05259D02*
X05263D01*
X05301D02*
X05307D01*
X05347D02*
X05349D01*
X04701Y0184D02*
X04703D01*
X04747D02*
X04753D01*
X04843D02*
X04887D01*
X04927D02*
X04971D01*
X04983D02*
X05027D01*
X05261D02*
X05265D01*
X05267D02*
X05269D01*
X05305D02*
X05309D01*
X05347D02*
X05349D01*
X04699Y01842D02*
X04703D01*
X04743D02*
X04749D01*
X04843D02*
X04887D01*
X04927D02*
X04969D01*
X04985D02*
X05029D01*
X05265D02*
X05273D01*
X05307D02*
X05313D01*
X05345D02*
X05351D01*
X04701Y01844D02*
X04705D01*
X04741D02*
X04745D01*
X04843D02*
X04889D01*
X04925D02*
X04971D01*
X04983D02*
X05027D01*
X05271D02*
X05275D01*
X05313D02*
X05317D01*
X05347D02*
X05349D01*
X04701Y01846D02*
X04703D01*
X04737D02*
X04741D01*
X04841D02*
X04887D01*
X04927D02*
X04969D01*
X04985D02*
X05027D01*
X05273D02*
X05279D01*
X05315D02*
X05319D01*
X05321D02*
X05323D01*
X05347D02*
X05351D01*
X04701Y01848D02*
X04703D01*
X04733D02*
X04737D01*
X04843D02*
X04887D01*
X04927D02*
X04969D01*
X04985D02*
X05029D01*
X05277D02*
X05281D01*
X05319D02*
X05325D01*
X05347D02*
X05349D01*
X04701Y0185D02*
X04703D01*
X04729D02*
X04735D01*
X04843D02*
X04889D01*
X04927D02*
X04969D01*
X04985D02*
X05027D01*
X05281D02*
X05287D01*
X05325D02*
X05329D01*
X05347D02*
X05349D01*
X04699Y01852D02*
X04703D01*
X04727D02*
X04731D01*
X04841D02*
X04887D01*
X04925D02*
X04971D01*
X04983D02*
X05029D01*
X05285D02*
X05289D01*
X05327D02*
X05333D01*
X05347D02*
X05351D01*
X04701Y01854D02*
X04705D01*
X04723D02*
X04727D01*
X04843D02*
X04889D01*
X04927D02*
X04969D01*
X04985D02*
X05027D01*
X05287D02*
X05293D01*
X05331D02*
X05337D01*
X05347D02*
X05349D01*
X04701Y01856D02*
X04703D01*
X04719D02*
X04723D01*
X04757D02*
X04767D01*
X04843D02*
X04887D01*
X04927D02*
X04969D01*
X04985D02*
X05027D01*
X05291D02*
X05297D01*
X05335D02*
X05339D01*
X05347D02*
X05349D01*
X04701Y01858D02*
X04703D01*
X04713D02*
X04715D01*
X04717D02*
X04721D01*
X04755D02*
X04771D01*
X04843D02*
X04887D01*
X04927D02*
X04969D01*
X04985D02*
X05027D01*
X05295D02*
X05301D01*
X05339D02*
X05343D01*
X05347D02*
X05349D01*
X04701Y0186D02*
X04705D01*
X04711D02*
X04717D01*
X04751D02*
X04763D01*
X04767D02*
X04775D01*
X04843D02*
X04889D01*
X04925D02*
X04971D01*
X04983D02*
X05029D01*
X05299D02*
X05303D01*
X05341D02*
X05349D01*
X04701Y01862D02*
X04703D01*
X04707D02*
X04711D01*
X04749D02*
X04765D01*
X04771D02*
X04779D01*
X04841D02*
X04887D01*
X04927D02*
X04969D01*
X04985D02*
X05027D01*
X05301D02*
X05307D01*
X05345D02*
X05349D01*
X04701Y01864D02*
X04709D01*
X04743D02*
X04763D01*
X04775D02*
X04781D01*
X04843D02*
X04887D01*
X04927D02*
X04969D01*
X04983D02*
X05027D01*
X05305D02*
X05311D01*
X05341D02*
X05347D01*
X04701Y01866D02*
X04705D01*
X04741D02*
X04765D01*
X04779D02*
X04785D01*
X04843D02*
X04887D01*
X04927D02*
X04971D01*
X04983D02*
X05029D01*
X05309D02*
X05315D01*
X05339D02*
X05345D01*
X04701Y01868D02*
X04707D01*
X04737D02*
X04763D01*
X04765D02*
X04767D01*
X04781D02*
X04789D01*
X04841D02*
X04889D01*
X04925D02*
X04969D01*
X04979D02*
X05027D01*
X05313D02*
X05317D01*
X05335D02*
X05341D01*
X04705Y0187D02*
X04713D01*
X04735D02*
X04763D01*
X04785D02*
X04793D01*
X04843D02*
X04887D01*
X04927D02*
X04969D01*
X04975D02*
X05027D01*
X05315D02*
X05321D01*
X05331D02*
X05337D01*
X04709Y01872D02*
X04717D01*
X04731D02*
X04765D01*
X04789D02*
X04795D01*
X04841D02*
X04889D01*
X04927D02*
X05029D01*
X05319D02*
X05327D01*
X05329D02*
X05335D01*
X04713Y01874D02*
X04721D01*
X04727D02*
X04763D01*
X04765D02*
X04767D01*
X04793D02*
X04799D01*
X04843D02*
X04887D01*
X04927D02*
X05027D01*
X05325D02*
X05331D01*
X04717Y01876D02*
X04763D01*
X04795D02*
X04803D01*
X04843D02*
X04889D01*
X04925D02*
X05029D01*
X05327D02*
X05335D01*
X04721Y01878D02*
X04765D01*
X04799D02*
X04807D01*
X04843D02*
X04887D01*
X04927D02*
X05027D01*
X05331D02*
X05339D01*
X04721Y0188D02*
X04765D01*
X04803D02*
X04809D01*
X04843D02*
X04887D01*
X04925D02*
X05027D01*
X05335D02*
X05341D01*
X04723Y01882D02*
X04763D01*
X04765D02*
X04767D01*
X04807D02*
X04813D01*
X04841D02*
X04887D01*
X04927D02*
X05027D01*
X05337D02*
X05345D01*
X04723Y01884D02*
X04763D01*
X04811D02*
X04819D01*
X04843D02*
X04889D01*
X04927D02*
X05029D01*
X05341D02*
X05347D01*
X04721Y01886D02*
X04765D01*
X04809D02*
X04819D01*
X04843D02*
X04887D01*
X04925D02*
X05027D01*
X05341D02*
X05349D01*
X04723Y01888D02*
X04763D01*
X04765D02*
X04767D01*
X04813D02*
X04823D01*
X04841D02*
X04889D01*
X04927D02*
X05029D01*
X05345D02*
X05349D01*
X04723Y0189D02*
X04763D01*
X04819D02*
X04825D01*
X04843D02*
X04887D01*
X04927D02*
X05027D01*
X05347D02*
X05349D01*
X04721Y01892D02*
X04765D01*
X04823D02*
X04829D01*
X04843D02*
X04887D01*
X04925D02*
X05027D01*
X05345D02*
X05349D01*
X04723Y01894D02*
X04763D01*
X04765D02*
X04767D01*
X04825D02*
X04833D01*
X04843D02*
X04889D01*
X04927D02*
X05029D01*
X05347D02*
X05349D01*
X04723Y01896D02*
X04763D01*
X04829D02*
X04837D01*
X04843D02*
X04887D01*
X04927D02*
X05027D01*
X05347D02*
X05349D01*
X04723Y01898D02*
X04765D01*
X04833D02*
X04841D01*
X04843D02*
X04887D01*
X04925D02*
X05027D01*
X05347D02*
X05351D01*
X04721Y019D02*
X04763D01*
X04765D02*
X04767D01*
X04837D02*
X04889D01*
X04927D02*
X05029D01*
X05345D02*
X05349D01*
X04723Y01902D02*
X04763D01*
X04841D02*
X04887D01*
X04927D02*
X05027D01*
X05347D02*
X05349D01*
X04723Y01904D02*
X04765D01*
X04841D02*
X04889D01*
X04925D02*
X05027D01*
X05345D02*
X05349D01*
X04721Y01906D02*
X04763D01*
X04843D02*
X04887D01*
X04927D02*
X05029D01*
X05347D02*
X05351D01*
X04723Y01908D02*
X04765D01*
X04841D02*
X04887D01*
X04927D02*
X05027D01*
X05347D02*
X05349D01*
X04721Y0191D02*
X04763D01*
X04765D02*
X04767D01*
X04843D02*
X04889D01*
X04925D02*
X05027D01*
X05347D02*
X05349D01*
X04723Y01912D02*
X04763D01*
X04765D02*
X04767D01*
X04843D02*
X04887D01*
X04927D02*
X05029D01*
X05347D02*
X05349D01*
X04723Y01914D02*
X04763D01*
X04841D02*
X04887D01*
X04927D02*
X05027D01*
X05347D02*
X05351D01*
X04721Y01916D02*
X04765D01*
X04843D02*
X04889D01*
X04925D02*
X05027D01*
X05345D02*
X05349D01*
X04723Y01918D02*
X04765D01*
X04843D02*
X04887D01*
X04927D02*
X05029D01*
X05347D02*
X05349D01*
X04723Y0192D02*
X04763D01*
X04841D02*
X04887D01*
X04927D02*
X04983D01*
X04985D02*
X05027D01*
X05347D02*
X05349D01*
X04723Y01922D02*
X04765D01*
X04841D02*
X04889D01*
X04925D02*
X04979D01*
X04985D02*
X05027D01*
X05347D02*
X05349D01*
X04721Y01924D02*
X04763D01*
X04765D02*
X04767D01*
X04837D02*
X04887D01*
X04927D02*
X04975D01*
X04983D02*
X05029D01*
X05345D02*
X05349D01*
X04723Y01926D02*
X04763D01*
X04831D02*
X04889D01*
X04925D02*
X04971D01*
X04985D02*
X05027D01*
X05347D02*
X05349D01*
X04723Y01928D02*
X04765D01*
X04827D02*
X04889D01*
X04927D02*
X04973D01*
X04985D02*
X05027D01*
X05345D02*
X05351D01*
X04721Y0193D02*
X04763D01*
X04765D02*
X04767D01*
X04825D02*
X04887D01*
X04927D02*
X04969D01*
X04971D02*
X04975D01*
X04983D02*
X05027D01*
X05347D02*
X05349D01*
X04723Y01932D02*
X04763D01*
X04823D02*
X04887D01*
X04925D02*
X04971D01*
X04975D02*
X04979D01*
X04985D02*
X05029D01*
X05347D02*
X05349D01*
X04723Y01934D02*
X04765D01*
X04821D02*
X04889D01*
X04927D02*
X04969D01*
X04975D02*
X04979D01*
X04985D02*
X05027D01*
X05347D02*
X05349D01*
X04723Y01936D02*
X04763D01*
X04821D02*
X04887D01*
X04925D02*
X04971D01*
X04977D02*
X04983D01*
X04985D02*
X05029D01*
X05345D02*
X05349D01*
X04721Y01938D02*
X04767D01*
X04815D02*
X04887D01*
X04927D02*
X04969D01*
X04981D02*
X05027D01*
X05347D02*
X05351D01*
X04723Y0194D02*
X04763D01*
X04815D02*
X04889D01*
X04927D02*
X04969D01*
X04983D02*
X05027D01*
X05347D02*
X05349D01*
X04723Y01942D02*
X04765D01*
X04811D02*
X04887D01*
X04925D02*
X04971D01*
X04985D02*
X05027D01*
X05347D02*
X05349D01*
X04723Y01944D02*
X04763D01*
X04807D02*
X04889D01*
X04925D02*
X04969D01*
X04983D02*
X05029D01*
X05347D02*
X05349D01*
X04723Y01946D02*
X04763D01*
X04765D02*
X04767D01*
X04807D02*
X04887D01*
X04927D02*
X04971D01*
X04985D02*
X05027D01*
X05345D02*
X05351D01*
X04721Y01948D02*
X04765D01*
X04805D02*
X04887D01*
X04927D02*
X04969D01*
X04985D02*
X05029D01*
X05347D02*
X05349D01*
X04723Y0195D02*
X04763D01*
X04765D02*
X04767D01*
X04803D02*
X04889D01*
X04925D02*
X04969D01*
X04983D02*
X05027D01*
X05347D02*
X05349D01*
X04723Y01952D02*
X04763D01*
X04801D02*
X04887D01*
X04927D02*
X04969D01*
X04985D02*
X05027D01*
X05347D02*
X05349D01*
X04721Y01954D02*
X04765D01*
X04799D02*
X04887D01*
X04927D02*
X04971D01*
X04983D02*
X05027D01*
X05345D02*
X05349D01*
X04723Y01956D02*
X04763D01*
X04765D02*
X04767D01*
X04799D02*
X04889D01*
X04925D02*
X04969D01*
X04985D02*
X05029D01*
X05347D02*
X05351D01*
X04723Y01958D02*
X04763D01*
X04797D02*
X04887D01*
X04927D02*
X04971D01*
X04985D02*
X05027D01*
X05347D02*
X05349D01*
X04723Y0196D02*
X04765D01*
X04797D02*
X04887D01*
X04927D02*
X04969D01*
X04983D02*
X05029D01*
X05347D02*
X05349D01*
X04721Y01962D02*
X04763D01*
X04795D02*
X04887D01*
X04927D02*
X04969D01*
X04985D02*
X05027D01*
X05345D02*
X05349D01*
X04723Y01964D02*
X04765D01*
X04795D02*
X04889D01*
X04925D02*
X04971D01*
X04983D02*
X05027D01*
X05347D02*
X05349D01*
X04723Y01966D02*
X04763D01*
X04765D02*
X04767D01*
X04793D02*
X04887D01*
X04927D02*
X04969D01*
X04985D02*
X05029D01*
X05347D02*
X05349D01*
X04721Y01968D02*
X04763D01*
X04791D02*
X04889D01*
X04925D02*
X04969D01*
X04985D02*
X05027D01*
X05345D02*
X05349D01*
X04723Y0197D02*
X04767D01*
X04791D02*
X04887D01*
X04927D02*
X04969D01*
X04985D02*
X05027D01*
X05347D02*
X05351D01*
X04723Y01972D02*
X04763D01*
X04789D02*
X04889D01*
X04925D02*
X04971D01*
X04983D02*
X05029D01*
X05347D02*
X05349D01*
X04721Y01974D02*
X04765D01*
X04791D02*
X04887D01*
X04927D02*
X04969D01*
X04985D02*
X05027D01*
X05347D02*
X05349D01*
X04723Y01976D02*
X04763D01*
X04789D02*
X04841D01*
X04843D02*
X04887D01*
X04925D02*
X04969D01*
X04985D02*
X05027D01*
X05345D02*
X05349D01*
X04723Y01978D02*
X04765D01*
X04789D02*
X04837D01*
X04843D02*
X04887D01*
X04927D02*
X04969D01*
X04983D02*
X05029D01*
X05347D02*
X05349D01*
X04721Y0198D02*
X04763D01*
X04765D02*
X04767D01*
X04789D02*
X04833D01*
X04841D02*
X04889D01*
X04927D02*
X04971D01*
X04985D02*
X05027D01*
X05347D02*
X05351D01*
X04723Y01982D02*
X04763D01*
X04789D02*
X04833D01*
X04843D02*
X04887D01*
X04925D02*
X04969D01*
X04985D02*
X05027D01*
X05347D02*
X05349D01*
X04723Y01984D02*
X04765D01*
X04789D02*
X04833D01*
X04843D02*
X04887D01*
X04927D02*
X04971D01*
X04985D02*
X05027D01*
X05347D02*
X05349D01*
X04723Y01986D02*
X04763D01*
X04765D02*
X04767D01*
X04787D02*
X04831D01*
X04841D02*
X04887D01*
X04927D02*
X04969D01*
X04985D02*
X05029D01*
X05345D02*
X05349D01*
X04721Y01988D02*
X04763D01*
X04787D02*
X04831D01*
X04843D02*
X04889D01*
X04925D02*
X04969D01*
X04983D02*
X05027D01*
X05347D02*
X05349D01*
X04723Y0199D02*
X04765D01*
X04787D02*
X04831D01*
X04843D02*
X04887D01*
X04927D02*
X04971D01*
X04985D02*
X05027D01*
X05347D02*
X05349D01*
X04723Y01992D02*
X04763D01*
X04785D02*
X04831D01*
X04843D02*
X04887D01*
X04927D02*
X04969D01*
X04983D02*
X05027D01*
X05347D02*
X05351D01*
X04723Y01994D02*
X04765D01*
X04787D02*
X04829D01*
X04841D02*
X04887D01*
X04927D02*
X04971D01*
X04985D02*
X05029D01*
X05345D02*
X05349D01*
X04721Y01996D02*
X04763D01*
X04765D02*
X04767D01*
X04785D02*
X04831D01*
X04843D02*
X04889D01*
X04925D02*
X04969D01*
X04985D02*
X05027D01*
X05347D02*
X05349D01*
X04723Y01998D02*
X04763D01*
X04787D02*
X04829D01*
X04843D02*
X04887D01*
X04927D02*
X04969D01*
X04983D02*
X05027D01*
X05347D02*
X05351D01*
X04723Y02D02*
X04765D01*
X04787D02*
X04831D01*
X04841D02*
X04887D01*
X04925D02*
X04971D01*
X04985D02*
X05029D01*
X05347D02*
X05349D01*
X04723Y02002D02*
X04763D01*
X04765D02*
X04767D01*
X04785D02*
X04829D01*
X04843D02*
X04887D01*
X04927D02*
X04969D01*
X04985D02*
X05027D01*
X05347D02*
X05351D01*
X04723Y02004D02*
X04763D01*
X04787D02*
X04831D01*
X04843D02*
X04889D01*
X04927D02*
X04969D01*
X04983D02*
X05027D01*
X05347D02*
X05349D01*
X04721Y02006D02*
X04765D01*
X04787D02*
X04829D01*
X04841D02*
X04887D01*
X04925D02*
X04971D01*
X04985D02*
X05029D01*
X05347D02*
X05349D01*
X04723Y02008D02*
X04763D01*
X04785D02*
X04831D01*
X04843D02*
X04887D01*
X04927D02*
X04969D01*
X04985D02*
X05031D01*
X05345D02*
X05349D01*
X04721Y0201D02*
X04765D01*
X04787D02*
X04829D01*
X04841D02*
X04889D01*
X04927D02*
X04969D01*
X04983D02*
X05023D01*
X05031D02*
X05035D01*
X05347D02*
X05349D01*
X04723Y02012D02*
X04763D01*
X04765D02*
X04767D01*
X04787D02*
X04831D01*
X04843D02*
X04887D01*
X04927D02*
X04971D01*
X04985D02*
X05019D01*
X05035D02*
X05039D01*
X05347D02*
X05351D01*
X04723Y02014D02*
X04763D01*
X04785D02*
X04829D01*
X04843D02*
X04887D01*
X04925D02*
X04969D01*
X04985D02*
X05013D01*
X05037D02*
X05043D01*
X05347D02*
X05349D01*
X04723Y02016D02*
X04765D01*
X04787D02*
X04831D01*
X04841D02*
X04887D01*
X04927D02*
X04969D01*
X04985D02*
X05011D01*
X05041D02*
X05047D01*
X05347D02*
X05349D01*
X04723Y02018D02*
X04763D01*
X04785D02*
X04829D01*
X04843D02*
X04887D01*
X04927D02*
X04971D01*
X04983D02*
X05007D01*
X05045D02*
X05049D01*
X05347D02*
X05349D01*
X04721Y0202D02*
X04765D01*
X04787D02*
X04831D01*
X04843D02*
X04889D01*
X04925D02*
X04969D01*
X04985D02*
X05005D01*
X05049D02*
X05053D01*
X05347D02*
X05351D01*
X04723Y02022D02*
X04763D01*
X04765D02*
X04767D01*
X04787D02*
X04829D01*
X04841D02*
X04887D01*
X04927D02*
X04969D01*
X04985D02*
X04999D01*
X05051D02*
X05057D01*
X05345D02*
X05349D01*
X04723Y02024D02*
X04763D01*
X04785D02*
X04831D01*
X04843D02*
X04887D01*
X04927D02*
X04969D01*
X04983D02*
X04997D01*
X05055D02*
X05061D01*
X05347D02*
X05351D01*
X04723Y02026D02*
X04763D01*
X04765D02*
X04767D01*
X04787D02*
X04829D01*
X04843D02*
X04889D01*
X04925D02*
X04969D01*
X04985D02*
X04993D01*
X05059D02*
X05063D01*
X05347D02*
X05349D01*
X04721Y02028D02*
X04765D01*
X04785D02*
X04831D01*
X04841D02*
X04887D01*
X04927D02*
X04971D01*
X04985D02*
X04989D01*
X05061D02*
X05067D01*
X05347D02*
X05349D01*
X04723Y0203D02*
X04763D01*
X04765D02*
X04767D01*
X04787D02*
X04829D01*
X04843D02*
X04887D01*
X04927D02*
X04969D01*
X04987D02*
X04993D01*
X05065D02*
X05071D01*
X05347D02*
X05349D01*
X04723Y02032D02*
X04763D01*
X04787D02*
X04829D01*
X04843D02*
X04887D01*
X04927D02*
X04971D01*
X04987D02*
X04991D01*
X05065D02*
X05073D01*
X05347D02*
X05351D01*
X04721Y02034D02*
X04765D01*
X04787D02*
X04831D01*
X04843D02*
X04889D01*
X04927D02*
X04969D01*
X04989D02*
X04995D01*
X05071D02*
X05075D01*
X05345D02*
X05349D01*
X04723Y02036D02*
X04763D01*
X04765D02*
X04767D01*
X04785D02*
X04829D01*
X04841D02*
X04887D01*
X04925D02*
X04969D01*
X04993D02*
X04999D01*
X05073D02*
X05079D01*
X05347D02*
X05349D01*
X04723Y02038D02*
X04763D01*
X04787D02*
X04831D01*
X04843D02*
X04887D01*
X04927D02*
X04969D01*
X04997D02*
X05003D01*
X05077D02*
X05083D01*
X05347D02*
X05351D01*
X04723Y0204D02*
X04765D01*
X04787D02*
X04829D01*
X04843D02*
X04887D01*
X04927D02*
X04971D01*
X05001D02*
X05007D01*
X05081D02*
X05087D01*
X05347D02*
X05349D01*
X04721Y02042D02*
X04763D01*
X04787D02*
X04831D01*
X04841D02*
X04889D01*
X04925D02*
X04975D01*
X05003D02*
X05009D01*
X05085D02*
X05089D01*
X05347D02*
X05349D01*
X04723Y02044D02*
X04765D01*
X04785D02*
X04829D01*
X04843D02*
X04887D01*
X04927D02*
X04963D01*
X04971D02*
X04979D01*
X05007D02*
X05013D01*
X05089D02*
X05093D01*
X05347D02*
X05351D01*
X04723Y02046D02*
X04763D01*
X04765D02*
X04767D01*
X04787D02*
X04831D01*
X04841D02*
X04887D01*
X04927D02*
X04959D01*
X04975D02*
X04981D01*
X05009D02*
X05019D01*
X05091D02*
X05097D01*
X05347D02*
X05349D01*
X04723Y02048D02*
X04763D01*
X04787D02*
X04831D01*
X04843D02*
X04887D01*
X04927D02*
X04957D01*
X04979D02*
X04985D01*
X05013D02*
X05023D01*
X05095D02*
X05101D01*
X05347D02*
X05349D01*
X04721Y0205D02*
X04765D01*
X04787D02*
X04829D01*
X04843D02*
X04889D01*
X04925D02*
X04953D01*
X04981D02*
X04989D01*
X05019D02*
X05027D01*
X05099D02*
X05103D01*
X05345D02*
X05349D01*
X04723Y02052D02*
X04763D01*
X04765D02*
X04767D01*
X04785D02*
X04829D01*
X04841D02*
X04887D01*
X04927D02*
X04951D01*
X04985D02*
X04993D01*
X05023D02*
X05029D01*
X05103D02*
X05107D01*
X05347D02*
X05349D01*
X04723Y02054D02*
X04763D01*
X04787D02*
X04831D01*
X04843D02*
X04887D01*
X04927D02*
X04947D01*
X04989D02*
X04995D01*
X05027D02*
X05033D01*
X05105D02*
X05111D01*
X05347D02*
X05349D01*
X04723Y02056D02*
X04765D01*
X04787D02*
X04829D01*
X04841D02*
X04887D01*
X04927D02*
X04943D01*
X04993D02*
X04997D01*
X05031D02*
X05037D01*
X05109D02*
X05115D01*
X05345D02*
X05349D01*
X04723Y02058D02*
X04763D01*
X04765D02*
X04767D01*
X04787D02*
X04829D01*
X04843D02*
X04889D01*
X04927D02*
X04941D01*
X04995D02*
X05003D01*
X05033D02*
X05039D01*
X05113D02*
X05119D01*
X05347D02*
X05349D01*
X04721Y0206D02*
X04763D01*
X04785D02*
X04831D01*
X04841D02*
X04887D01*
X04925D02*
X04937D01*
X04999D02*
X05005D01*
X05037D02*
X05043D01*
X05117D02*
X05123D01*
X05347D02*
X05351D01*
X04723Y02062D02*
X04765D01*
X04787D02*
X04829D01*
X04843D02*
X04887D01*
X04927D02*
X04935D01*
X05003D02*
X05007D01*
X05039D02*
X05045D01*
X05121D02*
X05127D01*
X05347D02*
X05349D01*
X04723Y02064D02*
X04763D01*
X04785D02*
X04831D01*
X04841D02*
X04889D01*
X04927D02*
X04931D01*
X05005D02*
X05011D01*
X05043D02*
X05049D01*
X05125D02*
X05131D01*
X05347D02*
X05349D01*
X04721Y02066D02*
X04765D01*
X04787D02*
X04829D01*
X04837D02*
X04887D01*
X04929D02*
X04935D01*
X05009D02*
X05015D01*
X05017D02*
X05019D01*
X05047D02*
X05053D01*
X05129D02*
X05133D01*
X05345D02*
X05349D01*
X04723Y02068D02*
X04763D01*
X04787D02*
X04887D01*
X04931D02*
X04937D01*
X05013D02*
X05021D01*
X05051D02*
X05057D01*
X05133D02*
X05137D01*
X05347D02*
X05349D01*
X04723Y0207D02*
X04765D01*
X04785D02*
X04889D01*
X04935D02*
X04943D01*
X05017D02*
X05025D01*
X05053D02*
X05059D01*
X05135D02*
X05139D01*
X05347D02*
X05349D01*
X04723Y02072D02*
X04765D01*
X04787D02*
X04887D01*
X04939D02*
X04945D01*
X05021D02*
X05027D01*
X05057D02*
X05063D01*
X05137D02*
X05145D01*
X05347D02*
X05351D01*
X04721Y02074D02*
X04763D01*
X04765D02*
X04767D01*
X04787D02*
X04887D01*
X04943D02*
X04949D01*
X05025D02*
X05031D01*
X05061D02*
X05067D01*
X05143D02*
X05147D01*
X05345D02*
X05349D01*
X04723Y02076D02*
X04763D01*
X04785D02*
X04889D01*
X04945D02*
X04951D01*
X05029D02*
X05035D01*
X05063D02*
X05073D01*
X05145D02*
X05151D01*
X05347D02*
X05349D01*
X04723Y02078D02*
X04763D01*
X04765D02*
X04767D01*
X04787D02*
X04887D01*
X04949D02*
X04955D01*
X05031D02*
X05039D01*
X05067D02*
X05069D01*
X05071D02*
X05075D01*
X05149D02*
X05153D01*
X05347D02*
X05349D01*
X04723Y0208D02*
X04763D01*
X04765D02*
X04767D01*
X04787D02*
X04887D01*
X04949D02*
X04955D01*
X05033D02*
X05039D01*
X05067D02*
X05075D01*
X05149D02*
X05155D01*
X05347D02*
X05349D01*
X04723Y02082D02*
X04763D01*
X04787D02*
X04887D01*
X04953D02*
X04959D01*
X05035D02*
X05041D01*
X05073D02*
X05079D01*
X05153D02*
X05157D01*
X05345D02*
X05349D01*
X04721Y02084D02*
X04765D01*
X04785D02*
X04887D01*
X04957D02*
X04963D01*
X05039D02*
X05045D01*
X05077D02*
X05083D01*
X05157D02*
X05163D01*
X05347D02*
X05349D01*
X04723Y02086D02*
X04763D01*
X04765D02*
X04767D01*
X04787D02*
X04887D01*
X04959D02*
X04967D01*
X05041D02*
X05047D01*
X05079D02*
X05085D01*
X05161D02*
X05165D01*
X05347D02*
X05349D01*
X04723Y02088D02*
X04763D01*
X04787D02*
X04889D01*
X04963D02*
X04971D01*
X05045D02*
X05053D01*
X05083D02*
X05089D01*
X05163D02*
X05167D01*
X05169D02*
X05171D01*
X05345D02*
X05349D01*
X04723Y0209D02*
X04765D01*
X04787D02*
X04893D01*
X04969D02*
X04973D01*
X05049D02*
X05055D01*
X05087D02*
X05093D01*
X05167D02*
X05173D01*
X05347D02*
X05351D01*
X04721Y02092D02*
X04763D01*
X04765D02*
X04767D01*
X04785D02*
X04883D01*
X04889D02*
X04897D01*
X04971D02*
X04979D01*
X05053D02*
X05059D01*
X05091D02*
X05097D01*
X05173D02*
X05179D01*
X05347D02*
X05349D01*
X04723Y02094D02*
X04763D01*
X04787D02*
X04879D01*
X04893D02*
X04901D01*
X04975D02*
X04983D01*
X05055D02*
X05063D01*
X05093D02*
X05099D01*
X05177D02*
X05181D01*
X05347D02*
X05349D01*
X04723Y02096D02*
X04765D01*
X04787D02*
X04877D01*
X04897D02*
X04903D01*
X04979D02*
X04985D01*
X05059D02*
X05067D01*
X05097D02*
X05103D01*
X05179D02*
X05185D01*
X05347D02*
X05349D01*
X04723Y02098D02*
X04763D01*
X04783D02*
X04873D01*
X04901D02*
X04907D01*
X04983D02*
X04989D01*
X05063D02*
X05071D01*
X05101D02*
X05105D01*
X05183D02*
X05187D01*
X05345D02*
X05351D01*
X04721Y021D02*
X04763D01*
X04765D02*
X04767D01*
X04779D02*
X04869D01*
X04903D02*
X04911D01*
X04987D02*
X04991D01*
X05067D02*
X05075D01*
X05103D02*
X05111D01*
X05187D02*
X05191D01*
X05347D02*
X05349D01*
X04723Y02102D02*
X04763D01*
X04775D02*
X04865D01*
X04907D02*
X04913D01*
X04989D02*
X04995D01*
X05071D02*
X05079D01*
X05107D02*
X05113D01*
X05189D02*
X05195D01*
X05347D02*
X05349D01*
X04723Y02104D02*
X04765D01*
X04771D02*
X04861D01*
X04911D02*
X04919D01*
X04993D02*
X04999D01*
X05075D02*
X05083D01*
X05111D02*
X05117D01*
X05193D02*
X05197D01*
X05199D02*
X05201D01*
X05347D02*
X05349D01*
X04723Y02106D02*
X04763D01*
X04767D02*
X04857D01*
X04913D02*
X04923D01*
X04997D02*
X05001D01*
X05079D02*
X05085D01*
X05115D02*
X05123D01*
X05197D02*
X05199D01*
X05345D02*
X05349D01*
X04721Y02108D02*
X04853D01*
X04919D02*
X04925D01*
X04999D02*
X05007D01*
X05083D02*
X05089D01*
X05117D02*
X05119D01*
X05121D02*
X05125D01*
X05199D02*
X05205D01*
X05347D02*
X05349D01*
X04723Y0211D02*
X04851D01*
X04923D02*
X04929D01*
X05003D02*
X05009D01*
X05085D02*
X05091D01*
X05123D02*
X05129D01*
X05203D02*
X05209D01*
X05347D02*
X05349D01*
X04723Y02112D02*
X04847D01*
X04925D02*
X04933D01*
X05007D02*
X05013D01*
X05089D02*
X05095D01*
X05127D02*
X05131D01*
X05207D02*
X05213D01*
X05345D02*
X05349D01*
X04721Y02114D02*
X04845D01*
X04929D02*
X04937D01*
X05011D02*
X05015D01*
X05017D02*
X05019D01*
X05093D02*
X05099D01*
X05129D02*
X05135D01*
X05211D02*
X05215D01*
X05347D02*
X05351D01*
X04723Y02116D02*
X04841D01*
X04933D02*
X04941D01*
X05013D02*
X05021D01*
X05095D02*
X05101D01*
X05133D02*
X05141D01*
X05215D02*
X05221D01*
X05347D02*
X05349D01*
X04723Y02118D02*
X04837D01*
X04937D02*
X04943D01*
X05019D02*
X05025D01*
X05099D02*
X05105D01*
X05137D02*
X05143D01*
X05217D02*
X05219D01*
X05221D02*
X05225D01*
X05347D02*
X05349D01*
X04723Y0212D02*
X04833D01*
X04941D02*
X04947D01*
X05023D02*
X05027D01*
X05103D02*
X05109D01*
X05141D02*
X05147D01*
X05223D02*
X05227D01*
X05347D02*
X05351D01*
X04723Y02122D02*
X04831D01*
X04943D02*
X04951D01*
X05025D02*
X05033D01*
X05107D02*
X05113D01*
X05143D02*
X05151D01*
X05227D02*
X05231D01*
X05347D02*
X05349D01*
X04721Y02124D02*
X04827D01*
X04947D02*
X04955D01*
X05029D02*
X05035D01*
X05109D02*
X05117D01*
X05147D02*
X05153D01*
X05229D02*
X05235D01*
X05347D02*
X05349D01*
X04723Y02126D02*
X04787D01*
X04791D02*
X04825D01*
X04951D02*
X04955D01*
X05033D02*
X05039D01*
X05113D02*
X05121D01*
X05151D02*
X05157D01*
X05233D02*
X05239D01*
X05345D02*
X05349D01*
X04721Y02128D02*
X04789D01*
X04791D02*
X04821D01*
X04953D02*
X04959D01*
X05035D02*
X05041D01*
X05117D02*
X05125D01*
X05153D02*
X05161D01*
X05237D02*
X05241D01*
X05347D02*
X05349D01*
X04723Y0213D02*
X04787D01*
X04791D02*
X04819D01*
X04955D02*
X04961D01*
X05037D02*
X05043D01*
X05117D02*
X05125D01*
X05155D02*
X05159D01*
X05237D02*
X05243D01*
X05347D02*
X05351D01*
X04723Y02132D02*
X04787D01*
X04793D02*
X04815D01*
X04957D02*
X04965D01*
X05039D02*
X05045D01*
X05121D02*
X05129D01*
X05157D02*
X05163D01*
X05241D02*
X05247D01*
X05347D02*
X05349D01*
X04721Y02134D02*
X04787D01*
X04799D02*
X04811D01*
X04961D02*
X04971D01*
X05043D02*
X05049D01*
X05125D02*
X05131D01*
X05161D02*
X05167D01*
X05245D02*
X05249D01*
X05347D02*
X05349D01*
X04717Y02136D02*
X04787D01*
X04803D02*
X04811D01*
X04965D02*
X04973D01*
X05047D02*
X05053D01*
X05129D02*
X05135D01*
X05165D02*
X05173D01*
X05247D02*
X05253D01*
X05347D02*
X05349D01*
X04711Y02138D02*
X04789D01*
X04807D02*
X04813D01*
X04971D02*
X04977D01*
X05051D02*
X05053D01*
X05055D02*
X05057D01*
X05131D02*
X05139D01*
X05167D02*
X05169D01*
X05171D02*
X05177D01*
X05251D02*
X05255D01*
X05345D02*
X05349D01*
X04709Y0214D02*
X04787D01*
X04811D02*
X04819D01*
X04973D02*
X04981D01*
X05053D02*
X05061D01*
X05137D02*
X05143D01*
X05173D02*
X05179D01*
X05255D02*
X05259D01*
X05347D02*
X05349D01*
X04705Y02142D02*
X04787D01*
X04815D02*
X04821D01*
X04977D02*
X04985D01*
X05057D02*
X05063D01*
X05139D02*
X05147D01*
X05177D02*
X05183D01*
X05257D02*
X05263D01*
X05347D02*
X05349D01*
X04701Y02144D02*
X04787D01*
X04819D02*
X04825D01*
X04981D02*
X04987D01*
X05061D02*
X05065D01*
X05143D02*
X05149D01*
X05181D02*
X05185D01*
X05261D02*
X05267D01*
X05347D02*
X05351D01*
X04699Y02146D02*
X04789D01*
X04823D02*
X04829D01*
X04985D02*
X04991D01*
X05063D02*
X05073D01*
X05147D02*
X05153D01*
X05183D02*
X05191D01*
X05265D02*
X05271D01*
X05345D02*
X05349D01*
X04701Y02148D02*
X04791D01*
X04827D02*
X04833D01*
X04987D02*
X04995D01*
X05067D02*
X05075D01*
X05149D02*
X05157D01*
X05187D02*
X05193D01*
X05267D02*
X05269D01*
X05271D02*
X05275D01*
X05347D02*
X05349D01*
X04701Y0215D02*
X04783D01*
X04789D02*
X04797D01*
X04829D02*
X04835D01*
X04991D02*
X04999D01*
X05073D02*
X05079D01*
X05153D02*
X05161D01*
X05191D02*
X05197D01*
X05273D02*
X05279D01*
X05347D02*
X05349D01*
X04701Y02152D02*
X04779D01*
X04793D02*
X04799D01*
X04833D02*
X04839D01*
X04995D02*
X05001D01*
X05077D02*
X05083D01*
X05157D02*
X05163D01*
X05193D02*
X05201D01*
X05277D02*
X05283D01*
X05345D02*
X05351D01*
X04699Y02154D02*
X04775D01*
X04797D02*
X04803D01*
X04837D02*
X04843D01*
X04999D02*
X05005D01*
X05079D02*
X05087D01*
X05161D02*
X05167D01*
X05197D02*
X05205D01*
X05281D02*
X05285D01*
X05347D02*
X05349D01*
X04701Y02156D02*
X04773D01*
X04799D02*
X04805D01*
X04841D02*
X04845D01*
X05001D02*
X05009D01*
X05083D02*
X05089D01*
X05163D02*
X05173D01*
X05201D02*
X05207D01*
X05285D02*
X05291D01*
X05347D02*
X05349D01*
X04701Y02158D02*
X04769D01*
X04803D02*
X04811D01*
X04843D02*
X04851D01*
X05005D02*
X05011D01*
X05087D02*
X05093D01*
X05167D02*
X05173D01*
X05175D02*
X05177D01*
X05205D02*
X05211D01*
X05289D02*
X05293D01*
X05347D02*
X05351D01*
X04701Y0216D02*
X04763D01*
X04807D02*
X04813D01*
X04847D02*
X04855D01*
X05009D02*
X05015D01*
X05089D02*
X05095D01*
X05171D02*
X05179D01*
X05209D02*
X05213D01*
X05291D02*
X05297D01*
X05347D02*
X05349D01*
X04699Y02162D02*
X04759D01*
X04811D02*
X04819D01*
X04851D02*
X04857D01*
X05011D02*
X05021D01*
X05093D02*
X05101D01*
X05177D02*
X05183D01*
X05211D02*
X05217D01*
X05295D02*
X05299D01*
X05347D02*
X05349D01*
X04701Y02164D02*
X04757D01*
X04813D02*
X04823D01*
X04855D02*
X04859D01*
X05017D02*
X05023D01*
X05097D02*
X05103D01*
X05179D02*
X05185D01*
X05215D02*
X05223D01*
X05299D02*
X05303D01*
X05347D02*
X05349D01*
X04701Y02166D02*
X04753D01*
X04819D02*
X04825D01*
X04857D02*
X04863D01*
X05021D02*
X05027D01*
X05101D02*
X05105D01*
X05183D02*
X05189D01*
X05219D02*
X05227D01*
X05301D02*
X05307D01*
X05347D02*
X05349D01*
X04701Y02168D02*
X04749D01*
X04823D02*
X04829D01*
X04861D02*
X04869D01*
X05025D02*
X05031D01*
X05103D02*
X05109D01*
X05187D02*
X05191D01*
X05223D02*
X05231D01*
X05305D02*
X05311D01*
X05345D02*
X05351D01*
X04701Y0217D02*
X04747D01*
X04827D02*
X04833D01*
X04865D02*
X04873D01*
X05027D02*
X05035D01*
X05107D02*
X05113D01*
X05189D02*
X05195D01*
X05227D02*
X05233D01*
X05309D02*
X05313D01*
X05347D02*
X05349D01*
X04699Y02172D02*
X04743D01*
X04829D02*
X04837D01*
X04869D02*
X04875D01*
X05031D02*
X05039D01*
X05111D02*
X05117D01*
X05193D02*
X05199D01*
X05231D02*
X05237D01*
X05313D02*
X05317D01*
X05347D02*
X05349D01*
X04701Y02174D02*
X04739D01*
X04833D02*
X04839D01*
X04873D02*
X04879D01*
X05035D02*
X05041D01*
X05113D02*
X05121D01*
X05197D02*
X05203D01*
X05235D02*
X05239D01*
X05315D02*
X05323D01*
X05347D02*
X05351D01*
X04699Y02176D02*
X04735D01*
X04837D02*
X04843D01*
X04877D02*
X04883D01*
X05039D02*
X05043D01*
X05117D02*
X05125D01*
X05199D02*
X05207D01*
X05237D02*
X05245D01*
X05319D02*
X05321D01*
X05323D02*
X05327D01*
X05347D02*
X05349D01*
X04701Y02178D02*
X04735D01*
X04837D02*
X04843D01*
X04877D02*
X04883D01*
X05039D02*
X05045D01*
X05119D02*
X05127D01*
X05201D02*
X05207D01*
X05237D02*
X05243D01*
X05319D02*
X05325D01*
X05347D02*
X05349D01*
X04701Y0218D02*
X04731D01*
X04839D02*
X04847D01*
X04881D02*
X04885D01*
X05041D02*
X05049D01*
X05123D02*
X05129D01*
X05205D02*
X05211D01*
X05241D02*
X05247D01*
X05325D02*
X05329D01*
X05347D02*
X05349D01*
X04699Y02182D02*
X04729D01*
X04843D02*
X04851D01*
X04883D02*
X04889D01*
X05045D02*
X05051D01*
X05127D02*
X05131D01*
X05207D02*
X05213D01*
X05245D02*
X05251D01*
X05327D02*
X05333D01*
X05347D02*
X05349D01*
X04701Y02184D02*
X04725D01*
X04847D02*
X04855D01*
X04887D02*
X04893D01*
X05049D02*
X05055D01*
X05129D02*
X05135D01*
X05211D02*
X05215D01*
X05247D02*
X05253D01*
X05331D02*
X05337D01*
X05347D02*
X05351D01*
X04701Y02186D02*
X04721D01*
X04851D02*
X04857D01*
X04891D02*
X04893D01*
X04895D02*
X04897D01*
X05051D02*
X05059D01*
X05133D02*
X05141D01*
X05213D02*
X05221D01*
X05251D02*
X05257D01*
X05335D02*
X05339D01*
X05345D02*
X05349D01*
X04699Y02188D02*
X04719D01*
X04855D02*
X04861D01*
X04893D02*
X04899D01*
X05057D02*
X05063D01*
X05137D02*
X05143D01*
X05217D02*
X05227D01*
X05255D02*
X05261D01*
X05339D02*
X05345D01*
X05347D02*
X05349D01*
X04701Y0219D02*
X04713D01*
X04857D02*
X04865D01*
X04897D02*
X04903D01*
X05059D02*
X05067D01*
X05141D02*
X05145D01*
X05223D02*
X05229D01*
X05257D02*
X05265D01*
X05343D02*
X05349D01*
X04701Y02192D02*
X04709D01*
X04861D02*
X04871D01*
X04901D02*
X04907D01*
X05063D02*
X05071D01*
X05143D02*
X05149D01*
X05227D02*
X05231D01*
X05261D02*
X05269D01*
X05345D02*
X05349D01*
X04701Y02194D02*
X04707D01*
X04865D02*
X04873D01*
X04905D02*
X04911D01*
X05067D02*
X05075D01*
X05147D02*
X05153D01*
X05229D02*
X05237D01*
X05265D02*
X05273D01*
X05343D02*
X05347D01*
X04703Y02196D02*
X04707D01*
X04871D02*
X04877D01*
X04909D02*
X04913D01*
X05071D02*
X05077D01*
X05151D02*
X05157D01*
X05233D02*
X05239D01*
X05269D02*
X05277D01*
X05339D02*
X05345D01*
X04705Y02198D02*
X04711D01*
X04873D02*
X04881D01*
X04911D02*
X04919D01*
X05075D02*
X05081D01*
X05155D02*
X05161D01*
X05237D02*
X05243D01*
X05273D02*
X05281D01*
X05335D02*
X05341D01*
X04709Y022D02*
X04717D01*
X04877D02*
X04883D01*
X04915D02*
X04923D01*
X05077D02*
X05085D01*
X05157D02*
X05163D01*
X05239D02*
X05245D01*
X05277D02*
X05283D01*
X05333D02*
X05339D01*
X04713Y02202D02*
X04721D01*
X04881D02*
X04887D01*
X04921D02*
X04927D01*
X05083D02*
X05089D01*
X05161D02*
X05167D01*
X05243D02*
X05249D01*
X05281D02*
X05287D01*
X05329D02*
X05335D01*
X04717Y02204D02*
X04723D01*
X04883D02*
X04891D01*
X04923D02*
X04931D01*
X05085D02*
X05093D01*
X05165D02*
X05173D01*
X05247D02*
X05253D01*
X05285D02*
X05291D01*
X05327D02*
X05333D01*
X04721Y02206D02*
X04729D01*
X04887D02*
X04895D01*
X04927D02*
X04933D01*
X05089D02*
X05095D01*
X05169D02*
X05177D01*
X05251D02*
X05257D01*
X05287D02*
X05295D01*
X05319D02*
X05321D01*
X05323D02*
X05329D01*
X04725Y02208D02*
X04731D01*
X04891D02*
X04899D01*
X04929D02*
X04937D01*
X05093D02*
X05099D01*
X05173D02*
X05181D01*
X05255D02*
X05259D01*
X05289D02*
X05297D01*
X05319D02*
X05325D01*
X04729Y0221D02*
X04735D01*
X04895D02*
X04901D01*
X04935D02*
X04941D01*
X05097D02*
X05103D01*
X05177D02*
X05185D01*
X05257D02*
X05263D01*
X05289D02*
X05291D01*
X05295D02*
X05301D01*
X05315D02*
X05323D01*
X04731Y02212D02*
X04737D01*
X04899D02*
X04905D01*
X04937D02*
X04943D01*
X05099D02*
X05107D01*
X05181D02*
X05185D01*
X05261D02*
X05267D01*
X05289D02*
X05291D01*
X05297D02*
X05303D01*
X05313D02*
X05317D01*
X04735Y02214D02*
X04741D01*
X04901D02*
X04909D01*
X04941D02*
X04947D01*
X05103D02*
X05111D01*
X05183D02*
X05191D01*
X05265D02*
X05273D01*
X05289D02*
X05291D01*
X05301D02*
X05315D01*
X04739Y02216D02*
X04745D01*
X04905D02*
X04911D01*
X04945D02*
X04949D01*
X05107D02*
X05113D01*
X05187D02*
X05193D01*
X05267D02*
X05269D01*
X05271D02*
X05277D01*
X05289D02*
X05291D01*
X05305D02*
X05311D01*
X04741Y02218D02*
X04749D01*
X04909D02*
X04915D01*
X04947D02*
X04955D01*
X05111D02*
X05117D01*
X05191D02*
X05197D01*
X05273D02*
X05279D01*
X05289D02*
X05291D01*
X04745Y0222D02*
X04751D01*
X04913D02*
X04919D01*
X04951D02*
X04957D01*
X05113D02*
X05123D01*
X05195D02*
X05201D01*
X05277D02*
X05283D01*
X05289D02*
X05291D01*
X04749Y02222D02*
X04755D01*
X04915D02*
X04923D01*
X04955D02*
X04961D01*
X05117D02*
X05125D01*
X05197D02*
X05203D01*
X05281D02*
X05285D01*
X05289D02*
X05291D01*
X04751Y02224D02*
X04757D01*
X04921D02*
X04927D01*
X04959D02*
X04963D01*
X05123D02*
X05129D01*
X05201D02*
X05207D01*
X05283D02*
X05291D01*
X04753Y02226D02*
X04759D01*
X04921D02*
X04927D01*
X04959D02*
X04965D01*
X05123D02*
X05129D01*
X05201D02*
X05209D01*
X05283D02*
X05293D01*
X04755Y02228D02*
X04763D01*
X04925D02*
X04931D01*
X04961D02*
X04969D01*
X05125D02*
X05133D01*
X05205D02*
X05211D01*
X05287D02*
X05291D01*
X04759Y0223D02*
X04767D01*
X04927D02*
X04935D01*
X04965D02*
X04973D01*
X05129D02*
X05137D01*
X05207D02*
X05213D01*
X05283D02*
X05289D01*
X04763Y02232D02*
X04771D01*
X04931D02*
X04937D01*
X04971D02*
X04977D01*
X05133D02*
X05139D01*
X05207D02*
X05209D01*
X05211D02*
X05217D01*
X05219D02*
X05221D01*
X05279D02*
X05285D01*
X04769Y02234D02*
X04775D01*
X04935D02*
X04941D01*
X04973D02*
X04979D01*
X05137D02*
X05143D01*
X05207D02*
X05211D01*
X05215D02*
X05223D01*
X05275D02*
X05283D01*
X04771Y02236D02*
X04777D01*
X04939D02*
X04945D01*
X04977D02*
X04985D01*
X05139D02*
X05147D01*
X05207D02*
X05209D01*
X05217D02*
X05219D01*
X05221D02*
X05227D01*
X05273D02*
X05279D01*
X04775Y02238D02*
X04781D01*
X04941D02*
X04949D01*
X04981D02*
X04987D01*
X05143D02*
X05151D01*
X05207D02*
X05209D01*
X05223D02*
X05231D01*
X05265D02*
X05275D01*
X04777Y0224D02*
X04783D01*
X04945D02*
X04953D01*
X04985D02*
X04989D01*
X05147D02*
X05153D01*
X05207D02*
X05209D01*
X05227D02*
X05235D01*
X05263D02*
X05271D01*
X04781Y02242D02*
X04787D01*
X04949D02*
X04955D01*
X04987D02*
X04995D01*
X05151D02*
X05157D01*
X05207D02*
X05209D01*
X05231D02*
X05239D01*
X05259D02*
X05265D01*
X04785Y02244D02*
X04791D01*
X04953D02*
X04959D01*
X04991D02*
X04997D01*
X05153D02*
X05159D01*
X05207D02*
X05209D01*
X05235D02*
X05239D01*
X05255D02*
X05261D01*
X04789Y02246D02*
X04795D01*
X04955D02*
X04963D01*
X04995D02*
X05001D01*
X05157D02*
X05165D01*
X05207D02*
X05209D01*
X05237D02*
X05243D01*
X05253D02*
X05259D01*
X04791Y02248D02*
X04797D01*
X04959D02*
X04965D01*
X04999D02*
X05003D01*
X05161D02*
X05167D01*
X05207D02*
X05209D01*
X05241D02*
X05255D01*
X04795Y0225D02*
X04801D01*
X04963D02*
X04971D01*
X05001D02*
X05009D01*
X05165D02*
X05173D01*
X05207D02*
X05209D01*
X05245D02*
X05251D01*
X04799Y02252D02*
X04805D01*
X04965D02*
X04967D01*
X04969D02*
X04975D01*
X05005D02*
X05011D01*
X05169D02*
X05177D01*
X05207D02*
X05211D01*
X04801Y02254D02*
X04807D01*
X04971D02*
X04979D01*
X05009D02*
X05015D01*
X05173D02*
X05181D01*
X05207D02*
X05209D01*
X04805Y02256D02*
X04811D01*
X04975D02*
X04981D01*
X05011D02*
X05021D01*
X05177D02*
X05183D01*
X05207D02*
X05209D01*
X04809Y02258D02*
X04815D01*
X04979D02*
X04985D01*
X05015D02*
X05023D01*
X05181D02*
X05187D01*
X05207D02*
X05209D01*
X04813Y0226D02*
X04817D01*
X04819D02*
X04821D01*
X04981D02*
X04989D01*
X05021D02*
X05027D01*
X05183D02*
X05191D01*
X05207D02*
X05209D01*
X04815Y02262D02*
X04823D01*
X04985D02*
X04993D01*
X05023D02*
X05029D01*
X05187D02*
X05193D01*
X05207D02*
X05209D01*
X04821Y02264D02*
X04827D01*
X04989D02*
X04995D01*
X05027D02*
X05033D01*
X05191D02*
X05197D01*
X05207D02*
X05209D01*
X04825Y02266D02*
X04831D01*
X04993D02*
X04999D01*
X05031D02*
X05037D01*
X05195D02*
X05201D01*
X05207D02*
X05209D01*
X04827Y02268D02*
X04833D01*
X04995D02*
X05003D01*
X05035D02*
X05041D01*
X05197D02*
X05205D01*
X05207D02*
X05209D01*
X04831Y0227D02*
X04839D01*
X04999D02*
X05007D01*
X05039D02*
X05043D01*
X05201D02*
X05209D01*
X04835Y02272D02*
X04841D01*
X05003D02*
X05009D01*
X05041D02*
X05047D01*
X05205D02*
X05209D01*
X04839Y02274D02*
X04843D01*
X05007D02*
X05013D01*
X05045D02*
X05051D01*
X05203D02*
X05209D01*
X04839Y02276D02*
X04845D01*
X05007D02*
X05013D01*
X05045D02*
X05051D01*
X05201D02*
X05207D01*
X04841Y02278D02*
X04847D01*
X05011D02*
X05019D01*
X05049D02*
X05053D01*
X05197D02*
X05205D01*
X04845Y0228D02*
X04851D01*
X05013D02*
X05021D01*
X05051D02*
X05059D01*
X05195D02*
X05201D01*
X04849Y02282D02*
X04855D01*
X05019D02*
X05027D01*
X05055D02*
X05061D01*
X05193D02*
X05197D01*
X04851Y02284D02*
X04857D01*
X05023D02*
X05029D01*
X05059D02*
X05065D01*
X05189D02*
X05195D01*
X04855Y02286D02*
X04863D01*
X05027D02*
X05033D01*
X05063D02*
X05067D01*
X05069D02*
X05071D01*
X05185D02*
X05191D01*
X04859Y02288D02*
X04865D01*
X05029D02*
X05037D01*
X05065D02*
X05073D01*
X05181D02*
X05187D01*
X04863Y0229D02*
X04871D01*
X05033D02*
X05039D01*
X05071D02*
X05077D01*
X05177D02*
X05185D01*
X04865Y02292D02*
X04873D01*
X05037D02*
X05043D01*
X05075D02*
X05081D01*
X05175D02*
X05181D01*
X04871Y02294D02*
X04877D01*
X05039D02*
X05047D01*
X05077D02*
X05083D01*
X05171D02*
X05177D01*
X04875Y02296D02*
X04881D01*
X05043D02*
X05051D01*
X05081D02*
X05087D01*
X05165D02*
X05173D01*
X04877Y02298D02*
X04885D01*
X05047D02*
X05053D01*
X05085D02*
X05091D01*
X05163D02*
X05167D01*
X05169D02*
X05171D01*
X04881Y023D02*
X04887D01*
X05051D02*
X05057D01*
X05089D02*
X05095D01*
X05159D02*
X05165D01*
X04885Y02302D02*
X04891D01*
X05053D02*
X05061D01*
X05093D02*
X05097D01*
X05155D02*
X05161D01*
X04889Y02304D02*
X04895D01*
X05057D02*
X05065D01*
X05095D02*
X05101D01*
X05153D02*
X05159D01*
X04891Y02306D02*
X04899D01*
X05061D02*
X05067D01*
X05099D02*
X05105D01*
X05149D02*
X05155D01*
X04895Y02308D02*
X04901D01*
X05065D02*
X05073D01*
X05101D02*
X05109D01*
X05145D02*
X05151D01*
X04899Y0231D02*
X04905D01*
X05067D02*
X05069D01*
X05071D02*
X05077D01*
X05105D02*
X05111D01*
X05143D02*
X05149D01*
X04903Y02312D02*
X04907D01*
X05073D02*
X05081D01*
X05107D02*
X05115D01*
X05137D02*
X05145D01*
X04905Y02314D02*
X04911D01*
X05077D02*
X05083D01*
X05107D02*
X05109D01*
X05111D02*
X05121D01*
X05135D02*
X05141D01*
X04909Y02316D02*
X04915D01*
X05081D02*
X05087D01*
X05107D02*
X05109D01*
X05115D02*
X05125D01*
X05133D02*
X05137D01*
X04911Y02318D02*
X04919D01*
X05083D02*
X05091D01*
X05107D02*
X05109D01*
X05121D02*
X05135D01*
X04915Y0232D02*
X04923D01*
X05087D02*
X05093D01*
X05107D02*
X05109D01*
X05125D02*
X05131D01*
X04921Y02322D02*
X04927D01*
X05091D02*
X05097D01*
X05107D02*
X05109D01*
X04921Y02324D02*
X04927D01*
X05091D02*
X05097D01*
X05107D02*
X05109D01*
X04925Y02326D02*
X04931D01*
X05095D02*
X05101D01*
X05107D02*
X05109D01*
X04927Y02328D02*
X04933D01*
X05097D02*
X05103D01*
X05107D02*
X05109D01*
X04931Y0233D02*
X04939D01*
X05101D02*
X05109D01*
X04935Y02332D02*
X04941D01*
X05105D02*
X05109D01*
X04939Y02334D02*
X04943D01*
X05101D02*
X05107D01*
X04941Y02336D02*
X04947D01*
X05097D02*
X05105D01*
X04945Y02338D02*
X04951D01*
X05095D02*
X05101D01*
X04949Y0234D02*
X04953D01*
X05091D02*
X05097D01*
X04951Y02342D02*
X04959D01*
X05087D02*
X05093D01*
X04955Y02344D02*
X04961D01*
X05085D02*
X05091D01*
X04959Y02346D02*
X04965D01*
X05081D02*
X05087D01*
X04963Y02348D02*
X04969D01*
X05077D02*
X05083D01*
X04965Y0235D02*
X04973D01*
X05075D02*
X05081D01*
X04971Y02352D02*
X04977D01*
X05071D02*
X05077D01*
X04975Y02354D02*
X04981D01*
X05067D02*
X05073D01*
X04977Y02356D02*
X04985D01*
X05063D02*
X05071D01*
X04981Y02358D02*
X04989D01*
X05059D02*
X05065D01*
X04985Y0236D02*
X04991D01*
X05055D02*
X05061D01*
X04989Y02362D02*
X04995D01*
X05051D02*
X05059D01*
X04991Y02364D02*
X04997D01*
X05049D02*
X05055D01*
X04995Y02366D02*
X05001D01*
X05045D02*
X05051D01*
X04999Y02368D02*
X05005D01*
X05041D02*
X05047D01*
X05003Y0237D02*
X05009D01*
X05037D02*
X05043D01*
X05001Y02372D02*
X05007D01*
X05039D02*
X05045D01*
X05005Y02374D02*
X05011D01*
X05035D02*
X05041D01*
X05009Y02376D02*
X05015D01*
X05031D02*
X05037D01*
X05013Y02378D02*
X05017D01*
X05019D02*
X05021D01*
X05029D02*
X05035D01*
X05015Y0238D02*
X05031D01*
X05021Y02382D02*
X05027D01*
M02*
